<svg xmlns="http://www.w3.org/2000/svg" width="550" height="345" viewBox="0 0 550 345"><defs><marker id="ah" markerWidth="9" markerHeight="9" refX="7" refY="3" orient="auto"><path d="M0,0 L8,3 L0,6 z" fill="black"/></marker><marker id="ahO" markerWidth="9" markerHeight="9" refX="7" refY="3" orient="auto"><path d="M0,0 L8,3 L0,6 z" fill="#e65100"/></marker></defs><rect width="550" height="345" fill="white"/><text x="30" y="22" font-size="14.5" font-family="Arial" font-weight="bold">Tube-cutting workstation</text><text x="30" y="38" font-size="11" font-family="Arial" fill="#444">Saw cell 9.0 x 2.0 m = 18 m2 per saw (x2 mirrored)   |   Not to scale - dimensions in metres</text><rect x="30" y="50" width="462" height="167" fill="none" stroke="#222" stroke-width="2.4"/><rect x="30" y="59" width="264" height="44" fill="#ffcdd2" stroke="#666" stroke-width="1.2"/><text x="162" y="74" font-size="10.5" text-anchor="middle" dominant-baseline="middle" font-family="Arial">Cantilever rack face - WIP BEFORE (990 tubes)</text><text x="162" y="87" font-size="10.5" text-anchor="middle" dominant-baseline="middle" font-family="Arial">6 × 1 m</text><rect x="30" y="116" width="264" height="35" fill="#ffe0b2" stroke="#666" stroke-width="1.2"/><text x="162" y="127" font-size="10.5" text-anchor="middle" dominant-baseline="middle" font-family="Arial">Bar magazine - loading</text><text x="162" y="140" font-size="10.5" text-anchor="middle" dominant-baseline="middle" font-family="Arial">6 × 0.8 m</text><rect x="298" y="59" width="84" height="37" fill="#bbdefb" stroke="#666" stroke-width="1.2"/><text x="340" y="71" font-size="10.5" text-anchor="middle" dominant-baseline="middle" font-family="Arial">Guard zone</text><text x="340" y="84" font-size="10.5" text-anchor="middle" dominant-baseline="middle" font-family="Arial">1.9 × 0.85 m</text><rect x="307" y="103" width="66" height="57" fill="#c8e6c9" stroke="#666" stroke-width="1.2"/><text x="340" y="125" font-size="10.5" text-anchor="middle" dominant-baseline="middle" font-family="Arial">Auto saw</text><text x="340" y="138" font-size="10.5" text-anchor="middle" dominant-baseline="middle" font-family="Arial">1.5 × 1.3 m</text><rect x="395" y="103" width="57" height="57" fill="#fff9c4" stroke="#666" stroke-width="1.2"/><text x="424" y="118" font-size="10.5" text-anchor="middle" dominant-baseline="middle" font-family="Arial">WIP AFTER</text><text x="424" y="131" font-size="10.5" text-anchor="middle" dominant-baseline="middle" font-family="Arial">cut sections</text><text x="424" y="144" font-size="10.5" text-anchor="middle" dominant-baseline="middle" font-family="Arial">1.3 × 1.3 m</text><rect x="395" y="169" width="57" height="40" fill="#d7ccc8" stroke="#666" stroke-width="1.2"/><text x="424" y="182" font-size="10.5" text-anchor="middle" dominant-baseline="middle" font-family="Arial">Scrap bin</text><text x="424" y="195" font-size="10.5" text-anchor="middle" dominant-baseline="middle" font-family="Arial">1.3 × 0.9 m</text><rect x="30" y="164" width="348" height="40" fill="#e0e0e0" stroke="#666" stroke-width="1.2"/><text x="204" y="178" font-size="10.5" text-anchor="middle" dominant-baseline="middle" font-family="Arial">Operator movement / aisle</text><text x="204" y="191" font-size="10.5" text-anchor="middle" dominant-baseline="middle" font-family="Arial">7.9 × 0.9 m = 7.1 m²</text><line x1="162" y1="103" x2="162" y2="116" stroke="black" stroke-width="2.2" marker-end="url(#ah)"/><line x1="294" y1="134" x2="307" y2="134" stroke="black" stroke-width="2.2" marker-end="url(#ah)"/><line x1="373" y1="131" x2="395" y2="131" stroke="black" stroke-width="2.2" marker-end="url(#ah)"/><line x1="356" y1="160" x2="395" y2="182" stroke="black" stroke-width="2.2" marker-end="url(#ah)"/><line x1="30" y1="109" x2="294" y2="109" stroke="#c62828" stroke-width="1"/><text x="162" y="104" font-size="10.5" fill="#c62828" font-family="Arial" text-anchor="middle">magazine 6.0 m</text><line x1="30" y1="237.2" x2="492" y2="237.2" stroke="#333"/><text x="261" y="251.2" font-size="12" font-family="Arial" text-anchor="middle" font-weight="bold">10.5 m</text><line x1="512.0" y1="50" x2="512.0" y2="217" stroke="#333"/><text x="528.0" y="134" font-size="12" font-family="Arial" text-anchor="middle" font-weight="bold" transform="rotate(90 528.0 134)">3.8 m</text><rect x="30" y="267.2" width="20" height="13" fill="#c8e6c9" stroke="#666"/><text x="55" y="278.2" font-size="10" font-family="Arial">Machine</text><rect x="112.19999999999999" y="267.2" width="20" height="13" fill="#ffcdd2" stroke="#666"/><text x="137.2" y="278.2" font-size="10" font-family="Arial">Raw material</text><rect x="222.39999999999998" y="267.2" width="20" height="13" fill="#ffe0b2" stroke="#666"/><text x="247.39999999999998" y="278.2" font-size="10" font-family="Arial">Load/unload</text><rect x="327.0" y="267.2" width="20" height="13" fill="#fff9c4" stroke="#666"/><text x="352.0" y="278.2" font-size="10" font-family="Arial">WIP</text><rect x="386.8" y="267.2" width="20" height="13" fill="#e0e0e0" stroke="#666"/><text x="411.8" y="278.2" font-size="10" font-family="Arial">Operator/aisle</text><rect x="508.2" y="267.2" width="20" height="13" fill="#bbdefb" stroke="#666"/><text x="533.2" y="278.2" font-size="10" font-family="Arial">Safety</text><rect x="584.8" y="267.2" width="20" height="13" fill="#d7ccc8" stroke="#666"/><text x="609.8" y="278.2" font-size="10" font-family="Arial">Scrap/waste</text><line x1="689.4" y1="274.2" x2="715.4" y2="274.2" stroke="black" stroke-width="2" marker-end="url(#ah)"/><text x="720.4" y="278.2" font-size="10" font-family="Arial">Flow</text></svg>