<svg xmlns="http://www.w3.org/2000/svg" width="229" height="275" viewBox="0 0 229 275"><defs><marker id="ah" markerWidth="9" markerHeight="9" refX="7" refY="3" orient="auto"><path d="M0,0 L8,3 L0,6 z" fill="black"/></marker><marker id="ahO" markerWidth="9" markerHeight="9" refX="7" refY="3" orient="auto"><path d="M0,0 L8,3 L0,6 z" fill="#e65100"/></marker></defs><rect width="229" height="275" fill="white"/><text x="30" y="22" font-size="14.5" font-family="Arial" font-weight="bold">Internal-threading workstation</text><text x="30" y="38" font-size="11" font-family="Arial" fill="#444">Station 3.0 x 2.0 m = 6 m2 (x2)   |   Not to scale - dimensions in metres</text><rect x="30" y="50" width="141" height="97" fill="none" stroke="#222" stroke-width="2.4"/><rect x="30" y="68" width="31" height="44" fill="#fff9c4" stroke="#666" stroke-width="1.2"/><text x="45" y="77" font-size="10.5" text-anchor="middle" dominant-baseline="middle" font-family="Arial">WIP</text><text x="45" y="90" font-size="10.5" text-anchor="middle" dominant-baseline="middle" font-family="Arial">BEFORE</text><text x="45" y="103" font-size="10.5" text-anchor="middle" dominant-baseline="middle" font-family="Arial">0.7 × 1 m</text><rect x="140" y="68" width="31" height="44" fill="#fff9c4" stroke="#666" stroke-width="1.2"/><text x="155" y="77" font-size="10.5" text-anchor="middle" dominant-baseline="middle" font-family="Arial">WIP</text><text x="155" y="90" font-size="10.5" text-anchor="middle" dominant-baseline="middle" font-family="Arial">AFTER</text><text x="155" y="103" font-size="10.5" text-anchor="middle" dominant-baseline="middle" font-family="Arial">0.7 × 1 m</text><rect x="30" y="120" width="141" height="22" fill="#e0e0e0" stroke="#666" stroke-width="1.2"/><text x="100" y="131" font-size="10.5" text-anchor="middle" dominant-baseline="middle" font-family="Arial">Operator movement</text><rect x="74" y="63" width="53" height="48" fill="#c8e6c9" stroke="#666" stroke-width="1.2"/><text x="100" y="74" font-size="10.5" text-anchor="middle" dominant-baseline="middle" font-family="Arial">Tapping m/c</text><text x="100" y="87" font-size="10.5" text-anchor="middle" dominant-baseline="middle" font-family="Arial">+ fixture</text><text x="100" y="100" font-size="10.5" text-anchor="middle" dominant-baseline="middle" font-family="Arial">1.2 × 1.1 m</text><line x1="61" y1="90" x2="74" y2="90" stroke="black" stroke-width="2.2" marker-end="url(#ah)"/><line x1="127" y1="90" x2="140" y2="90" stroke="black" stroke-width="2.2" marker-end="url(#ah)"/><line x1="74" y1="57" x2="127" y2="57" stroke="#c62828" stroke-width="1"/><text x="100" y="52" font-size="10.5" fill="#c62828" font-family="Arial" text-anchor="middle">1.2 m</text><line x1="30" y1="166.8" x2="171" y2="166.8" stroke="#333"/><text x="100" y="180.8" font-size="12" font-family="Arial" text-anchor="middle" font-weight="bold">3.2 m</text><line x1="190.8" y1="50" x2="190.8" y2="147" stroke="#333"/><text x="206.8" y="98" font-size="12" font-family="Arial" text-anchor="middle" font-weight="bold" transform="rotate(90 206.8 98)">2.2 m</text><rect x="30" y="196.8" width="20" height="13" fill="#c8e6c9" stroke="#666"/><text x="55" y="207.8" font-size="10" font-family="Arial">Machine</text><rect x="112.19999999999999" y="196.8" width="20" height="13" fill="#ffcdd2" stroke="#666"/><text x="137.2" y="207.8" font-size="10" font-family="Arial">Raw material</text><rect x="222.39999999999998" y="196.8" width="20" height="13" fill="#ffe0b2" stroke="#666"/><text x="247.39999999999998" y="207.8" font-size="10" font-family="Arial">Load/unload</text><rect x="327.0" y="196.8" width="20" height="13" fill="#fff9c4" stroke="#666"/><text x="352.0" y="207.8" font-size="10" font-family="Arial">WIP</text><rect x="386.8" y="196.8" width="20" height="13" fill="#e0e0e0" stroke="#666"/><text x="411.8" y="207.8" font-size="10" font-family="Arial">Operator/aisle</text><rect x="508.2" y="196.8" width="20" height="13" fill="#bbdefb" stroke="#666"/><text x="533.2" y="207.8" font-size="10" font-family="Arial">Safety</text><rect x="584.8" y="196.8" width="20" height="13" fill="#d7ccc8" stroke="#666"/><text x="609.8" y="207.8" font-size="10" font-family="Arial">Scrap/waste</text><line x1="689.4" y1="203.8" x2="715.4" y2="203.8" stroke="black" stroke-width="2" marker-end="url(#ah)"/><text x="720.4" y="207.8" font-size="10" font-family="Arial">Flow</text></svg>