<svg xmlns="http://www.w3.org/2000/svg" width="458" height="328" viewBox="0 0 458 328"><defs><marker id="ah" markerWidth="9" markerHeight="9" refX="7" refY="3" orient="auto"><path d="M0,0 L8,3 L0,6 z" fill="black"/></marker><marker id="ahO" markerWidth="9" markerHeight="9" refX="7" refY="3" orient="auto"><path d="M0,0 L8,3 L0,6 z" fill="#e65100"/></marker></defs><rect width="458" height="328" fill="white"/><text x="30" y="22" font-size="14.5" font-family="Arial" font-weight="bold">Knurling and external-threading bank</text><text x="30" y="38" font-size="11" font-family="Arial" fill="#444">Bank 8.4 x 3.4 m = 28.6 m2; 99.7% utilisation   |   Not to scale - dimensions in metres</text><rect x="30" y="50" width="370" height="150" fill="none" stroke="#222" stroke-width="2.4"/><rect x="43" y="63" width="66" height="70" fill="#c8e6c9" stroke="#666" stroke-width="1.2"/><text x="76" y="92" font-size="10.5" text-anchor="middle" dominant-baseline="middle" font-family="Arial">Roll m/c 1</text><text x="76" y="105" font-size="10.5" text-anchor="middle" dominant-baseline="middle" font-family="Arial">1.5 × 1.6 m</text><rect x="133" y="63" width="66" height="70" fill="#c8e6c9" stroke="#666" stroke-width="1.2"/><text x="166" y="92" font-size="10.5" text-anchor="middle" dominant-baseline="middle" font-family="Arial">Roll m/c 2</text><text x="166" y="105" font-size="10.5" text-anchor="middle" dominant-baseline="middle" font-family="Arial">1.5 × 1.6 m</text><rect x="224" y="63" width="66" height="70" fill="#c8e6c9" stroke="#666" stroke-width="1.2"/><text x="257" y="92" font-size="10.5" text-anchor="middle" dominant-baseline="middle" font-family="Arial">Roll m/c 3</text><text x="257" y="105" font-size="10.5" text-anchor="middle" dominant-baseline="middle" font-family="Arial">1.5 × 1.6 m</text><rect x="314" y="63" width="66" height="70" fill="#c8e6c9" stroke="#666" stroke-width="1.2"/><text x="347" y="92" font-size="10.5" text-anchor="middle" dominant-baseline="middle" font-family="Arial">Roll m/c 4</text><text x="347" y="105" font-size="10.5" text-anchor="middle" dominant-baseline="middle" font-family="Arial">1.5 × 1.6 m</text><rect x="30" y="140" width="370" height="24" fill="#fff9c4" stroke="#666" stroke-width="1.2"/><text x="215" y="146" font-size="10.5" text-anchor="middle" dominant-baseline="middle" font-family="Arial">WIP buffer - narrowed pipes in / threaded handles out</text><text x="215" y="159" font-size="10.5" text-anchor="middle" dominant-baseline="middle" font-family="Arial">8.4 × 0.55 m</text><rect x="30" y="171" width="370" height="24" fill="#e0e0e0" stroke="#666" stroke-width="1.2"/><text x="215" y="177" font-size="10.5" text-anchor="middle" dominant-baseline="middle" font-family="Arial">Operator movement</text><text x="215" y="190" font-size="10.5" text-anchor="middle" dominant-baseline="middle" font-family="Arial">8.4 × 0.55 m = 4.6 m²</text><line x1="76" y1="140" x2="76" y2="134" stroke="black" stroke-width="2.2" marker-end="url(#ah)"/><line x1="345" y1="134" x2="345" y2="140" stroke="black" stroke-width="2.2" marker-end="url(#ah)"/><line x1="400" y1="152" x2="422" y2="152" stroke="black" stroke-width="2.2" marker-end="url(#ah)"/><line x1="43" y1="57" x2="109" y2="57" stroke="#c62828" stroke-width="1"/><text x="76" y="52" font-size="10.5" fill="#c62828" font-family="Arial" text-anchor="middle">1.5 m</text><line x1="30" y1="219.6" x2="400" y2="219.6" stroke="#333"/><text x="215" y="233.6" font-size="12" font-family="Arial" text-anchor="middle" font-weight="bold">8.4 m</text><line x1="419.6" y1="50" x2="419.6" y2="200" stroke="#333"/><text x="435.6" y="125" font-size="12" font-family="Arial" text-anchor="middle" font-weight="bold" transform="rotate(90 435.6 125)">3.4 m</text><rect x="30" y="249.6" width="20" height="13" fill="#c8e6c9" stroke="#666"/><text x="55" y="260.6" font-size="10" font-family="Arial">Machine</text><rect x="112.19999999999999" y="249.6" width="20" height="13" fill="#ffcdd2" stroke="#666"/><text x="137.2" y="260.6" font-size="10" font-family="Arial">Raw material</text><rect x="222.39999999999998" y="249.6" width="20" height="13" fill="#ffe0b2" stroke="#666"/><text x="247.39999999999998" y="260.6" font-size="10" font-family="Arial">Load/unload</text><rect x="327.0" y="249.6" width="20" height="13" fill="#fff9c4" stroke="#666"/><text x="352.0" y="260.6" font-size="10" font-family="Arial">WIP</text><rect x="386.8" y="249.6" width="20" height="13" fill="#e0e0e0" stroke="#666"/><text x="411.8" y="260.6" font-size="10" font-family="Arial">Operator/aisle</text><rect x="508.2" y="249.6" width="20" height="13" fill="#bbdefb" stroke="#666"/><text x="533.2" y="260.6" font-size="10" font-family="Arial">Safety</text><rect x="584.8" y="249.6" width="20" height="13" fill="#d7ccc8" stroke="#666"/><text x="609.8" y="260.6" font-size="10" font-family="Arial">Scrap/waste</text><line x1="689.4" y1="256.6" x2="715.4" y2="256.6" stroke="black" stroke-width="2" marker-end="url(#ah)"/><text x="720.4" y="260.6" font-size="10" font-family="Arial">Flow</text></svg>