<svg xmlns="http://www.w3.org/2000/svg" width="370" height="354" viewBox="0 0 370 354"><defs><marker id="ah" markerWidth="9" markerHeight="9" refX="7" refY="3" orient="auto"><path d="M0,0 L8,3 L0,6 z" fill="black"/></marker><marker id="ahO" markerWidth="9" markerHeight="9" refX="7" refY="3" orient="auto"><path d="M0,0 L8,3 L0,6 z" fill="#e65100"/></marker></defs><rect width="370" height="354" fill="white"/><text x="30" y="22" font-size="14.5" font-family="Arial" font-weight="bold">Sheet-stamping press cell</text><text x="30" y="38" font-size="11" font-family="Arial" fill="#444">Cell 6.4 x 4.0 m = 25.6 m2 (head + hinge share cell)   |   Not to scale - dimensions in metres</text><rect x="30" y="50" width="282" height="176" fill="none" stroke="#222" stroke-width="2.4"/><rect x="30" y="63" width="66" height="70" fill="#ffcdd2" stroke="#666" stroke-width="1.2"/><text x="63" y="85" font-size="10.5" text-anchor="middle" dominant-baseline="middle" font-family="Arial">Sheet stacks</text><text x="63" y="98" font-size="10.5" text-anchor="middle" dominant-baseline="middle" font-family="Arial">(240) WIP BEFORE</text><text x="63" y="111" font-size="10.5" text-anchor="middle" dominant-baseline="middle" font-family="Arial">1.5 × 1.6 m</text><rect x="30" y="142" width="66" height="31" fill="#ffe0b2" stroke="#666" stroke-width="1.2"/><text x="63" y="151" font-size="10.5" text-anchor="middle" dominant-baseline="middle" font-family="Arial">Sheet infeed</text><text x="63" y="164" font-size="10.5" text-anchor="middle" dominant-baseline="middle" font-family="Arial">1.5 × 0.7 m</text><rect x="122" y="63" width="44" height="57" fill="#c8e6c9" stroke="#666" stroke-width="1.2"/><text x="144" y="85" font-size="10.5" text-anchor="middle" dominant-baseline="middle" font-family="Arial">Head press</text><text x="144" y="98" font-size="10.5" text-anchor="middle" dominant-baseline="middle" font-family="Arial">1 × 1.3 m</text><rect x="202" y="63" width="44" height="57" fill="#c8e6c9" stroke="#666" stroke-width="1.2"/><text x="224" y="85" font-size="10.5" text-anchor="middle" dominant-baseline="middle" font-family="Arial">Hinge press</text><text x="224" y="98" font-size="10.5" text-anchor="middle" dominant-baseline="middle" font-family="Arial">1 × 1.3 m</text><rect x="122" y="134" width="44" height="35" fill="#fff9c4" stroke="#666" stroke-width="1.2"/><text x="144" y="138" font-size="10.5" text-anchor="middle" dominant-baseline="middle" font-family="Arial">Head</text><text x="144" y="151" font-size="10.5" text-anchor="middle" dominant-baseline="middle" font-family="Arial">blanks</text><text x="144" y="164" font-size="10.5" text-anchor="middle" dominant-baseline="middle" font-family="Arial">1 × 0.8 m</text><rect x="202" y="134" width="44" height="35" fill="#fff9c4" stroke="#666" stroke-width="1.2"/><text x="224" y="138" font-size="10.5" text-anchor="middle" dominant-baseline="middle" font-family="Arial">Hinge</text><text x="224" y="151" font-size="10.5" text-anchor="middle" dominant-baseline="middle" font-family="Arial">blanks</text><text x="224" y="164" font-size="10.5" text-anchor="middle" dominant-baseline="middle" font-family="Arial">1 × 0.8 m</text><rect x="263" y="63" width="44" height="40" fill="#d7ccc8" stroke="#666" stroke-width="1.2"/><text x="285" y="70" font-size="10.5" text-anchor="middle" dominant-baseline="middle" font-family="Arial">Skeleton</text><text x="285" y="83" font-size="10.5" text-anchor="middle" dominant-baseline="middle" font-family="Arial">scrap</text><text x="285" y="96" font-size="10.5" text-anchor="middle" dominant-baseline="middle" font-family="Arial">1 × 0.9 m</text><rect x="30" y="182" width="282" height="26" fill="#e0e0e0" stroke="#666" stroke-width="1.2"/><text x="171" y="189" font-size="10.5" text-anchor="middle" dominant-baseline="middle" font-family="Arial">Operator movement</text><text x="171" y="202" font-size="10.5" text-anchor="middle" dominant-baseline="middle" font-family="Arial">6.4 × 0.6 m = 3.8 m²</text><line x1="96" y1="98" x2="122" y2="92" stroke="black" stroke-width="2.2" marker-end="url(#ah)"/><line x1="96" y1="107" x2="202" y2="92" stroke="black" stroke-width="2.2" marker-end="url(#ah)"/><line x1="144" y1="120" x2="144" y2="134" stroke="black" stroke-width="2.2" marker-end="url(#ah)"/><line x1="224" y1="120" x2="224" y2="134" stroke="black" stroke-width="2.2" marker-end="url(#ah)"/><line x1="246" y1="83" x2="263" y2="83" stroke="black" stroke-width="2.2" marker-end="url(#ah)"/><line x1="122" y1="57" x2="166" y2="57" stroke="#c62828" stroke-width="1"/><text x="144" y="52" font-size="10.5" fill="#c62828" font-family="Arial" text-anchor="middle">0.93 m</text><line x1="30" y1="246.0" x2="312" y2="246.0" stroke="#333"/><text x="171" y="260.0" font-size="12" font-family="Arial" text-anchor="middle" font-weight="bold">6.4 m</text><line x1="331.6" y1="50" x2="331.6" y2="226" stroke="#333"/><text x="347.6" y="138" font-size="12" font-family="Arial" text-anchor="middle" font-weight="bold" transform="rotate(90 347.6 138)">4 m</text><rect x="30" y="276.0" width="20" height="13" fill="#c8e6c9" stroke="#666"/><text x="55" y="287.0" font-size="10" font-family="Arial">Machine</text><rect x="112.19999999999999" y="276.0" width="20" height="13" fill="#ffcdd2" stroke="#666"/><text x="137.2" y="287.0" font-size="10" font-family="Arial">Raw material</text><rect x="222.39999999999998" y="276.0" width="20" height="13" fill="#ffe0b2" stroke="#666"/><text x="247.39999999999998" y="287.0" font-size="10" font-family="Arial">Load/unload</text><rect x="327.0" y="276.0" width="20" height="13" fill="#fff9c4" stroke="#666"/><text x="352.0" y="287.0" font-size="10" font-family="Arial">WIP</text><rect x="386.8" y="276.0" width="20" height="13" fill="#e0e0e0" stroke="#666"/><text x="411.8" y="287.0" font-size="10" font-family="Arial">Operator/aisle</text><rect x="508.2" y="276.0" width="20" height="13" fill="#bbdefb" stroke="#666"/><text x="533.2" y="287.0" font-size="10" font-family="Arial">Safety</text><rect x="584.8" y="276.0" width="20" height="13" fill="#d7ccc8" stroke="#666"/><text x="609.8" y="287.0" font-size="10" font-family="Arial">Scrap/waste</text><line x1="689.4" y1="283.0" x2="715.4" y2="283.0" stroke="black" stroke-width="2" marker-end="url(#ah)"/><text x="720.4" y="287.0" font-size="10" font-family="Arial">Flow</text></svg>