<svg xmlns="http://www.w3.org/2000/svg" width="238" height="288" viewBox="0 0 238 288"><defs><marker id="ah" markerWidth="9" markerHeight="9" refX="7" refY="3" orient="auto"><path d="M0,0 L8,3 L0,6 z" fill="black"/></marker><marker id="ahO" markerWidth="9" markerHeight="9" refX="7" refY="3" orient="auto"><path d="M0,0 L8,3 L0,6 z" fill="#e65100"/></marker></defs><rect width="238" height="288" fill="white"/><text x="30" y="22" font-size="14.5" font-family="Arial" font-weight="bold">Hinge-connector bending workstation</text><text x="30" y="38" font-size="11" font-family="Arial" fill="#444">Station 8.5 m2 incl. guard clearance   |   Not to scale - dimensions in metres</text><rect x="30" y="50" width="150" height="110" fill="none" stroke="#222" stroke-width="2.4"/><rect x="30" y="68" width="31" height="44" fill="#fff9c4" stroke="#666" stroke-width="1.2"/><text x="45" y="77" font-size="10.5" text-anchor="middle" dominant-baseline="middle" font-family="Arial">WIP</text><text x="45" y="90" font-size="10.5" text-anchor="middle" dominant-baseline="middle" font-family="Arial">BEFORE</text><text x="45" y="103" font-size="10.5" text-anchor="middle" dominant-baseline="middle" font-family="Arial">0.7 × 1 m</text><rect x="74" y="63" width="62" height="44" fill="#c8e6c9" stroke="#666" stroke-width="1.2"/><text x="105" y="72" font-size="10.5" text-anchor="middle" dominant-baseline="middle" font-family="Arial">Press brake</text><text x="105" y="85" font-size="10.5" text-anchor="middle" dominant-baseline="middle" font-family="Arial">+ V-die</text><text x="105" y="98" font-size="10.5" text-anchor="middle" dominant-baseline="middle" font-family="Arial">1.4 × 1 m</text><rect x="74" y="109" width="62" height="13" fill="#bbdefb" stroke="#666" stroke-width="1.2"/><text x="105" y="116" font-size="10.5" text-anchor="middle" dominant-baseline="middle" font-family="Arial">Light curtain</text><rect x="149" y="68" width="31" height="44" fill="#fff9c4" stroke="#666" stroke-width="1.2"/><text x="164" y="77" font-size="10.5" text-anchor="middle" dominant-baseline="middle" font-family="Arial">WIP</text><text x="164" y="90" font-size="10.5" text-anchor="middle" dominant-baseline="middle" font-family="Arial">AFTER</text><text x="164" y="103" font-size="10.5" text-anchor="middle" dominant-baseline="middle" font-family="Arial">0.7 × 1 m</text><rect x="30" y="131" width="150" height="22" fill="#e0e0e0" stroke="#666" stroke-width="1.2"/><text x="105" y="142" font-size="10.5" text-anchor="middle" dominant-baseline="middle" font-family="Arial">Operator movement</text><line x1="61" y1="90" x2="74" y2="90" stroke="black" stroke-width="2.2" marker-end="url(#ah)"/><line x1="136" y1="90" x2="149" y2="90" stroke="black" stroke-width="2.2" marker-end="url(#ah)"/><line x1="74" y1="57" x2="136" y2="57" stroke="#c62828" stroke-width="1"/><text x="105" y="52" font-size="10.5" fill="#c62828" font-family="Arial" text-anchor="middle">1.4 m</text><line x1="30" y1="180.0" x2="180" y2="180.0" stroke="#333"/><text x="105" y="194.0" font-size="12" font-family="Arial" text-anchor="middle" font-weight="bold">3.4 m</text><line x1="199.6" y1="50" x2="199.6" y2="160" stroke="#333"/><text x="215.6" y="105" font-size="12" font-family="Arial" text-anchor="middle" font-weight="bold" transform="rotate(90 215.6 105)">2.5 m</text><rect x="30" y="210.0" width="20" height="13" fill="#c8e6c9" stroke="#666"/><text x="55" y="221.0" font-size="10" font-family="Arial">Machine</text><rect x="112.19999999999999" y="210.0" width="20" height="13" fill="#ffcdd2" stroke="#666"/><text x="137.2" y="221.0" font-size="10" font-family="Arial">Raw material</text><rect x="222.39999999999998" y="210.0" width="20" height="13" fill="#ffe0b2" stroke="#666"/><text x="247.39999999999998" y="221.0" font-size="10" font-family="Arial">Load/unload</text><rect x="327.0" y="210.0" width="20" height="13" fill="#fff9c4" stroke="#666"/><text x="352.0" y="221.0" font-size="10" font-family="Arial">WIP</text><rect x="386.8" y="210.0" width="20" height="13" fill="#e0e0e0" stroke="#666"/><text x="411.8" y="221.0" font-size="10" font-family="Arial">Operator/aisle</text><rect x="508.2" y="210.0" width="20" height="13" fill="#bbdefb" stroke="#666"/><text x="533.2" y="221.0" font-size="10" font-family="Arial">Safety</text><rect x="584.8" y="210.0" width="20" height="13" fill="#d7ccc8" stroke="#666"/><text x="609.8" y="221.0" font-size="10" font-family="Arial">Scrap/waste</text><line x1="689.4" y1="217.0" x2="715.4" y2="217.0" stroke="black" stroke-width="2" marker-end="url(#ah)"/><text x="720.4" y="221.0" font-size="10" font-family="Arial">Flow</text></svg>