<svg xmlns="http://www.w3.org/2000/svg" width="458" height="451" viewBox="0 0 458 451"><defs><marker id="ah" markerWidth="9" markerHeight="9" refX="7" refY="3" orient="auto"><path d="M0,0 L8,3 L0,6 z" fill="black"/></marker><marker id="ahO" markerWidth="9" markerHeight="9" refX="7" refY="3" orient="auto"><path d="M0,0 L8,3 L0,6 z" fill="#e65100"/></marker></defs><rect width="458" height="451" fill="white"/><text x="30" y="22" font-size="14.5" font-family="Arial" font-weight="bold">Blade-sharpening bank (8 stations)</text><text x="30" y="38" font-size="11" font-family="Arial" fill="#444">Bank 8.4 x 6.2 m = 52.1 m2 - facility bottleneck 94.7%   |   Not to scale - dimensions in metres</text><rect x="30" y="50" width="370" height="273" fill="none" stroke="#222" stroke-width="2.4"/><rect x="30" y="50" width="370" height="13" fill="#bbdefb" stroke="#666" stroke-width="1.2"/><text x="215" y="57" font-size="10.5" text-anchor="middle" dominant-baseline="middle" font-family="Arial">Extraction trunk</text><rect x="30" y="310" width="370" height="13" fill="#bbdefb" stroke="#666" stroke-width="1.2"/><text x="215" y="316" font-size="10.5" text-anchor="middle" dominant-baseline="middle" font-family="Arial">Extraction trunk</text><rect x="52" y="70" width="48" height="48" fill="#c8e6c9" stroke="#666" stroke-width="1.2"/><text x="76" y="88" font-size="10.5" text-anchor="middle" dominant-baseline="middle" font-family="Arial">Grinder 1</text><text x="76" y="100" font-size="10.5" text-anchor="middle" dominant-baseline="middle" font-family="Arial">1.1 × 1.1 m</text><rect x="140" y="70" width="48" height="48" fill="#c8e6c9" stroke="#666" stroke-width="1.2"/><text x="164" y="88" font-size="10.5" text-anchor="middle" dominant-baseline="middle" font-family="Arial">Grinder 2</text><text x="164" y="100" font-size="10.5" text-anchor="middle" dominant-baseline="middle" font-family="Arial">1.1 × 1.1 m</text><rect x="228" y="70" width="48" height="48" fill="#c8e6c9" stroke="#666" stroke-width="1.2"/><text x="252" y="88" font-size="10.5" text-anchor="middle" dominant-baseline="middle" font-family="Arial">Grinder 3</text><text x="252" y="100" font-size="10.5" text-anchor="middle" dominant-baseline="middle" font-family="Arial">1.1 × 1.1 m</text><rect x="316" y="70" width="48" height="48" fill="#c8e6c9" stroke="#666" stroke-width="1.2"/><text x="340" y="88" font-size="10.5" text-anchor="middle" dominant-baseline="middle" font-family="Arial">Grinder 4</text><text x="340" y="100" font-size="10.5" text-anchor="middle" dominant-baseline="middle" font-family="Arial">1.1 × 1.1 m</text><rect x="52" y="255" width="48" height="48" fill="#c8e6c9" stroke="#666" stroke-width="1.2"/><text x="76" y="272" font-size="10.5" text-anchor="middle" dominant-baseline="middle" font-family="Arial">Grinder 5</text><text x="76" y="285" font-size="10.5" text-anchor="middle" dominant-baseline="middle" font-family="Arial">1.1 × 1.1 m</text><rect x="140" y="255" width="48" height="48" fill="#c8e6c9" stroke="#666" stroke-width="1.2"/><text x="164" y="272" font-size="10.5" text-anchor="middle" dominant-baseline="middle" font-family="Arial">Grinder 6</text><text x="164" y="285" font-size="10.5" text-anchor="middle" dominant-baseline="middle" font-family="Arial">1.1 × 1.1 m</text><rect x="228" y="255" width="48" height="48" fill="#c8e6c9" stroke="#666" stroke-width="1.2"/><text x="252" y="272" font-size="10.5" text-anchor="middle" dominant-baseline="middle" font-family="Arial">Grinder 7</text><text x="252" y="285" font-size="10.5" text-anchor="middle" dominant-baseline="middle" font-family="Arial">1.1 × 1.1 m</text><rect x="316" y="255" width="48" height="48" fill="#c8e6c9" stroke="#666" stroke-width="1.2"/><text x="340" y="272" font-size="10.5" text-anchor="middle" dominant-baseline="middle" font-family="Arial">Grinder 8</text><text x="340" y="285" font-size="10.5" text-anchor="middle" dominant-baseline="middle" font-family="Arial">1.1 × 1.1 m</text><rect x="30" y="125" width="370" height="35" fill="#e0e0e0" stroke="#666" stroke-width="1.2"/><text x="215" y="136" font-size="10.5" text-anchor="middle" dominant-baseline="middle" font-family="Arial">Operator row</text><text x="215" y="149" font-size="10.5" text-anchor="middle" dominant-baseline="middle" font-family="Arial">8.4 × 0.8 m = 6.7 m²</text><rect x="30" y="215" width="370" height="35" fill="#e0e0e0" stroke="#666" stroke-width="1.2"/><text x="215" y="226" font-size="10.5" text-anchor="middle" dominant-baseline="middle" font-family="Arial">Operator row</text><text x="215" y="239" font-size="10.5" text-anchor="middle" dominant-baseline="middle" font-family="Arial">8.4 × 0.8 m = 6.7 m²</text><rect x="30" y="164" width="370" height="46" fill="#fff9c4" stroke="#666" stroke-width="1.2"/><text x="215" y="181" font-size="11.5" text-anchor="middle" dominant-baseline="middle" font-family="Arial">Central WIP lane - formed heads in (milk-run)</text><text x="215" y="194" font-size="11.5" text-anchor="middle" dominant-baseline="middle" font-family="Arial">8.4 × 1.05 m</text><line x1="10" y1="186" x2="30" y2="186" stroke="black" stroke-width="2.2" marker-end="url(#ah)"/><line x1="400" y1="186" x2="419" y2="186" stroke="black" stroke-width="2.2" marker-end="url(#ah)"/><line x1="389" y1="164" x2="389" y2="211" stroke="#c62828" stroke-width="1"/><text x="395" y="188" font-size="10.5" fill="#c62828" font-family="Arial" text-anchor="middle">1.05 m lane</text><line x1="30" y1="342.8" x2="400" y2="342.8" stroke="#333"/><text x="215" y="356.8" font-size="12" font-family="Arial" text-anchor="middle" font-weight="bold">8.4 m</text><line x1="419.6" y1="50" x2="419.6" y2="323" stroke="#333"/><text x="435.6" y="186" font-size="12" font-family="Arial" text-anchor="middle" font-weight="bold" transform="rotate(90 435.6 186)">6.2 m</text><rect x="30" y="372.8" width="20" height="13" fill="#c8e6c9" stroke="#666"/><text x="55" y="383.8" font-size="10" font-family="Arial">Machine</text><rect x="112.19999999999999" y="372.8" width="20" height="13" fill="#ffcdd2" stroke="#666"/><text x="137.2" y="383.8" font-size="10" font-family="Arial">Raw material</text><rect x="222.39999999999998" y="372.8" width="20" height="13" fill="#ffe0b2" stroke="#666"/><text x="247.39999999999998" y="383.8" font-size="10" font-family="Arial">Load/unload</text><rect x="327.0" y="372.8" width="20" height="13" fill="#fff9c4" stroke="#666"/><text x="352.0" y="383.8" font-size="10" font-family="Arial">WIP</text><rect x="386.8" y="372.8" width="20" height="13" fill="#e0e0e0" stroke="#666"/><text x="411.8" y="383.8" font-size="10" font-family="Arial">Operator/aisle</text><rect x="508.2" y="372.8" width="20" height="13" fill="#bbdefb" stroke="#666"/><text x="533.2" y="383.8" font-size="10" font-family="Arial">Safety</text><rect x="584.8" y="372.8" width="20" height="13" fill="#d7ccc8" stroke="#666"/><text x="609.8" y="383.8" font-size="10" font-family="Arial">Scrap/waste</text><line x1="689.4" y1="379.8" x2="715.4" y2="379.8" stroke="black" stroke-width="2" marker-end="url(#ah)"/><text x="720.4" y="383.8" font-size="10" font-family="Arial">Flow</text></svg>