<svg xmlns="http://www.w3.org/2000/svg" width="458" height="319" viewBox="0 0 458 319"><defs><marker id="ah" markerWidth="9" markerHeight="9" refX="7" refY="3" orient="auto"><path d="M0,0 L8,3 L0,6 z" fill="black"/></marker><marker id="ahO" markerWidth="9" markerHeight="9" refX="7" refY="3" orient="auto"><path d="M0,0 L8,3 L0,6 z" fill="#e65100"/></marker></defs><rect width="458" height="319" fill="white"/><text x="30" y="22" font-size="14.5" font-family="Arial" font-weight="bold">Blade-serrating row (4 stations)</text><text x="30" y="38" font-size="11" font-family="Arial" fill="#444">Row 26.9 m2; 94.7%   |   Not to scale - dimensions in metres</text><rect x="30" y="50" width="370" height="141" fill="none" stroke="#222" stroke-width="2.4"/><rect x="30" y="50" width="370" height="13" fill="#bbdefb" stroke="#666" stroke-width="1.2"/><text x="215" y="57" font-size="10.5" text-anchor="middle" dominant-baseline="middle" font-family="Arial">Extraction trunk</text><rect x="52" y="70" width="48" height="48" fill="#c8e6c9" stroke="#666" stroke-width="1.2"/><text x="76" y="88" font-size="10.5" text-anchor="middle" dominant-baseline="middle" font-family="Arial">Serrate 1</text><text x="76" y="100" font-size="10.5" text-anchor="middle" dominant-baseline="middle" font-family="Arial">1.1 × 1.1 m</text><rect x="140" y="70" width="48" height="48" fill="#c8e6c9" stroke="#666" stroke-width="1.2"/><text x="164" y="88" font-size="10.5" text-anchor="middle" dominant-baseline="middle" font-family="Arial">Serrate 2</text><text x="164" y="100" font-size="10.5" text-anchor="middle" dominant-baseline="middle" font-family="Arial">1.1 × 1.1 m</text><rect x="228" y="70" width="48" height="48" fill="#c8e6c9" stroke="#666" stroke-width="1.2"/><text x="252" y="88" font-size="10.5" text-anchor="middle" dominant-baseline="middle" font-family="Arial">Serrate 3</text><text x="252" y="100" font-size="10.5" text-anchor="middle" dominant-baseline="middle" font-family="Arial">1.1 × 1.1 m</text><rect x="316" y="70" width="48" height="48" fill="#c8e6c9" stroke="#666" stroke-width="1.2"/><text x="340" y="88" font-size="10.5" text-anchor="middle" dominant-baseline="middle" font-family="Arial">Serrate 4</text><text x="340" y="100" font-size="10.5" text-anchor="middle" dominant-baseline="middle" font-family="Arial">1.1 × 1.1 m</text><rect x="30" y="125" width="370" height="26" fill="#e0e0e0" stroke="#666" stroke-width="1.2"/><text x="215" y="132" font-size="10.5" text-anchor="middle" dominant-baseline="middle" font-family="Arial">Operator row</text><text x="215" y="144" font-size="10.5" text-anchor="middle" dominant-baseline="middle" font-family="Arial">8.4 × 0.6 m = 5.0 m²</text><rect x="30" y="156" width="370" height="26" fill="#fff9c4" stroke="#666" stroke-width="1.2"/><text x="215" y="162" font-size="10.5" text-anchor="middle" dominant-baseline="middle" font-family="Arial">WIP: sharpened in -&gt; serrated out</text><text x="215" y="175" font-size="10.5" text-anchor="middle" dominant-baseline="middle" font-family="Arial">8.4 × 0.6 m</text><line x1="10" y1="169" x2="30" y2="169" stroke="black" stroke-width="2.2" marker-end="url(#ah)"/><line x1="400" y1="169" x2="419" y2="169" stroke="black" stroke-width="2.2" marker-end="url(#ah)"/><line x1="30" y1="210.8" x2="400" y2="210.8" stroke="#333"/><text x="215" y="224.8" font-size="12" font-family="Arial" text-anchor="middle" font-weight="bold">8.4 m</text><line x1="419.6" y1="50" x2="419.6" y2="191" stroke="#333"/><text x="435.6" y="120" font-size="12" font-family="Arial" text-anchor="middle" font-weight="bold" transform="rotate(90 435.6 120)">3.2 m</text><rect x="30" y="240.8" width="20" height="13" fill="#c8e6c9" stroke="#666"/><text x="55" y="251.8" font-size="10" font-family="Arial">Machine</text><rect x="112.19999999999999" y="240.8" width="20" height="13" fill="#ffcdd2" stroke="#666"/><text x="137.2" y="251.8" font-size="10" font-family="Arial">Raw material</text><rect x="222.39999999999998" y="240.8" width="20" height="13" fill="#ffe0b2" stroke="#666"/><text x="247.39999999999998" y="251.8" font-size="10" font-family="Arial">Load/unload</text><rect x="327.0" y="240.8" width="20" height="13" fill="#fff9c4" stroke="#666"/><text x="352.0" y="251.8" font-size="10" font-family="Arial">WIP</text><rect x="386.8" y="240.8" width="20" height="13" fill="#e0e0e0" stroke="#666"/><text x="411.8" y="251.8" font-size="10" font-family="Arial">Operator/aisle</text><rect x="508.2" y="240.8" width="20" height="13" fill="#bbdefb" stroke="#666"/><text x="533.2" y="251.8" font-size="10" font-family="Arial">Safety</text><rect x="584.8" y="240.8" width="20" height="13" fill="#d7ccc8" stroke="#666"/><text x="609.8" y="251.8" font-size="10" font-family="Arial">Scrap/waste</text><line x1="689.4" y1="247.8" x2="715.4" y2="247.8" stroke="black" stroke-width="2" marker-end="url(#ah)"/><text x="720.4" y="251.8" font-size="10" font-family="Arial">Flow</text></svg>