<svg xmlns="http://www.w3.org/2000/svg" width="251" height="292" viewBox="0 0 251 292"><defs><marker id="ah" markerWidth="9" markerHeight="9" refX="7" refY="3" orient="auto"><path d="M0,0 L8,3 L0,6 z" fill="black"/></marker><marker id="ahO" markerWidth="9" markerHeight="9" refX="7" refY="3" orient="auto"><path d="M0,0 L8,3 L0,6 z" fill="#e65100"/></marker></defs><rect width="251" height="292" fill="white"/><text x="30" y="22" font-size="14.5" font-family="Arial" font-weight="bold">Riveting workstation</text><text x="30" y="38" font-size="11" font-family="Arial" fill="#444">Station 9.6 m2 - sheet parts converge here   |   Not to scale - dimensions in metres</text><rect x="30" y="50" width="163" height="114" fill="none" stroke="#222" stroke-width="2.4"/><rect x="30" y="63" width="35" height="31" fill="#fff9c4" stroke="#666" stroke-width="1.2"/><text x="48" y="72" font-size="10.5" text-anchor="middle" dominant-baseline="middle" font-family="Arial">Heads in</text><text x="48" y="85" font-size="10.5" text-anchor="middle" dominant-baseline="middle" font-family="Arial">0.8 × 0.7 m</text><rect x="30" y="98" width="35" height="31" fill="#fff9c4" stroke="#666" stroke-width="1.2"/><text x="48" y="107" font-size="10.5" text-anchor="middle" dominant-baseline="middle" font-family="Arial">Hinges in</text><text x="48" y="120" font-size="10.5" text-anchor="middle" dominant-baseline="middle" font-family="Arial">0.8 × 0.7 m</text><rect x="72" y="61" width="24" height="24" fill="#ffcdd2" stroke="#666" stroke-width="1.2"/><text x="84" y="73" font-size="10.5" text-anchor="middle" dominant-baseline="middle" font-family="Arial">Rivets</text><rect x="100" y="70" width="53" height="48" fill="#c8e6c9" stroke="#666" stroke-width="1.2"/><text x="127" y="81" font-size="10.5" text-anchor="middle" dominant-baseline="middle" font-family="Arial">Radial riveter</text><text x="127" y="94" font-size="10.5" text-anchor="middle" dominant-baseline="middle" font-family="Arial">2-hand control</text><text x="127" y="107" font-size="10.5" text-anchor="middle" dominant-baseline="middle" font-family="Arial">1.2 × 1.1 m</text><rect x="162" y="74" width="31" height="40" fill="#fff9c4" stroke="#666" stroke-width="1.2"/><text x="177" y="81" font-size="10.5" text-anchor="middle" dominant-baseline="middle" font-family="Arial">Subassy</text><text x="177" y="94" font-size="10.5" text-anchor="middle" dominant-baseline="middle" font-family="Arial">out</text><text x="177" y="107" font-size="10.5" text-anchor="middle" dominant-baseline="middle" font-family="Arial">0.7 × 0.9 m</text><rect x="30" y="136" width="163" height="22" fill="#e0e0e0" stroke="#666" stroke-width="1.2"/><text x="111" y="147" font-size="10.5" text-anchor="middle" dominant-baseline="middle" font-family="Arial">Operator movement</text><line x1="65" y1="81" x2="100" y2="90" stroke="black" stroke-width="2.2" marker-end="url(#ah)"/><line x1="65" y1="112" x2="100" y2="103" stroke="black" stroke-width="2.2" marker-end="url(#ah)"/><line x1="153" y1="94" x2="162" y2="94" stroke="black" stroke-width="2.2" marker-end="url(#ah)"/><line x1="30" y1="184.4" x2="193" y2="184.4" stroke="#333"/><text x="111" y="198.4" font-size="12" font-family="Arial" text-anchor="middle" font-weight="bold">3.7 m</text><line x1="212.8" y1="50" x2="212.8" y2="164" stroke="#333"/><text x="228.8" y="107" font-size="12" font-family="Arial" text-anchor="middle" font-weight="bold" transform="rotate(90 228.8 107)">2.6 m</text><rect x="30" y="214.4" width="20" height="13" fill="#c8e6c9" stroke="#666"/><text x="55" y="225.4" font-size="10" font-family="Arial">Machine</text><rect x="112.19999999999999" y="214.4" width="20" height="13" fill="#ffcdd2" stroke="#666"/><text x="137.2" y="225.4" font-size="10" font-family="Arial">Raw material</text><rect x="222.39999999999998" y="214.4" width="20" height="13" fill="#ffe0b2" stroke="#666"/><text x="247.39999999999998" y="225.4" font-size="10" font-family="Arial">Load/unload</text><rect x="327.0" y="214.4" width="20" height="13" fill="#fff9c4" stroke="#666"/><text x="352.0" y="225.4" font-size="10" font-family="Arial">WIP</text><rect x="386.8" y="214.4" width="20" height="13" fill="#e0e0e0" stroke="#666"/><text x="411.8" y="225.4" font-size="10" font-family="Arial">Operator/aisle</text><rect x="508.2" y="214.4" width="20" height="13" fill="#bbdefb" stroke="#666"/><text x="533.2" y="225.4" font-size="10" font-family="Arial">Safety</text><rect x="584.8" y="214.4" width="20" height="13" fill="#d7ccc8" stroke="#666"/><text x="609.8" y="225.4" font-size="10" font-family="Arial">Scrap/waste</text><line x1="689.4" y1="221.4" x2="715.4" y2="221.4" stroke="black" stroke-width="2" marker-end="url(#ah)"/><text x="720.4" y="225.4" font-size="10" font-family="Arial">Flow</text></svg>