<svg xmlns="http://www.w3.org/2000/svg" width="502" height="416" viewBox="0 0 502 416"><defs><marker id="ah" markerWidth="9" markerHeight="9" refX="7" refY="3" orient="auto"><path d="M0,0 L8,3 L0,6 z" fill="black"/></marker><marker id="ahO" markerWidth="9" markerHeight="9" refX="7" refY="3" orient="auto"><path d="M0,0 L8,3 L0,6 z" fill="#e65100"/></marker></defs><rect width="502" height="416" fill="white"/><text x="30" y="22" font-size="14.5" font-family="Arial" font-weight="bold">Heat-treatment (ageing) oven and day buffers</text><text x="30" y="38" font-size="11" font-family="Arial" fill="#444">50.8 m2 of 80 m2 zone; 1 batch (6 h) per shift   |   Not to scale - dimensions in metres</text><rect x="30" y="50" width="414" height="238" fill="none" stroke="#222" stroke-width="2.4"/><rect x="202" y="72" width="141" height="145" fill="#bbdefb" stroke="#666" stroke-width="1.2"/><text x="272" y="138" font-size="11.5" text-anchor="middle" dominant-baseline="middle" font-family="Arial">Thermal clearance</text><text x="272" y="151" font-size="11.5" text-anchor="middle" dominant-baseline="middle" font-family="Arial">3.2 × 3.3 m</text><rect x="30" y="63" width="97" height="158" fill="#fff9c4" stroke="#666" stroke-width="1.2"/><text x="78" y="129" font-size="11.5" text-anchor="middle" dominant-baseline="middle" font-family="Arial">Day buffer IN</text><text x="78" y="142" font-size="11.5" text-anchor="middle" dominant-baseline="middle" font-family="Arial">~5 pallets</text><text x="78" y="155" font-size="11.5" text-anchor="middle" dominant-baseline="middle" font-family="Arial">2.2 × 3.6 m</text><rect x="140" y="107" width="53" height="75" fill="#ffe0b2" stroke="#666" stroke-width="1.2"/><text x="166" y="138" font-size="10.5" text-anchor="middle" dominant-baseline="middle" font-family="Arial">Load car</text><text x="166" y="151" font-size="10.5" text-anchor="middle" dominant-baseline="middle" font-family="Arial">1.2 × 1.7 m</text><rect x="217" y="90" width="110" height="110" fill="#c8e6c9" stroke="#666" stroke-width="1.2"/><text x="272" y="138" font-size="11.5" text-anchor="middle" dominant-baseline="middle" font-family="Arial">Ageing oven</text><text x="272" y="151" font-size="11.5" text-anchor="middle" dominant-baseline="middle" font-family="Arial">2.5 × 2.5 m</text><rect x="351" y="63" width="88" height="158" fill="#fff9c4" stroke="#666" stroke-width="1.2"/><text x="395" y="129" font-size="11.5" text-anchor="middle" dominant-baseline="middle" font-family="Arial">Cooling / OUT</text><text x="395" y="142" font-size="11.5" text-anchor="middle" dominant-baseline="middle" font-family="Arial">~5 pallets</text><text x="395" y="155" font-size="11.5" text-anchor="middle" dominant-baseline="middle" font-family="Arial">2 × 3.6 m</text><rect x="30" y="239" width="414" height="31" fill="#e0e0e0" stroke="#666" stroke-width="1.2"/><text x="237" y="248" font-size="10.5" text-anchor="middle" dominant-baseline="middle" font-family="Arial">Forklift / pallet-truck aisle</text><text x="237" y="261" font-size="10.5" text-anchor="middle" dominant-baseline="middle" font-family="Arial">9.4 × 0.7 m = 6.6 m²</text><line x1="127" y1="142" x2="140" y2="142" stroke="black" stroke-width="2.2" marker-end="url(#ah)"/><line x1="193" y1="142" x2="217" y2="142" stroke="black" stroke-width="2.2" marker-end="url(#ah)"/><line x1="327" y1="142" x2="351" y2="142" stroke="black" stroke-width="2.2" marker-end="url(#ah)"/><line x1="395" y1="222" x2="395" y2="239" stroke="black" stroke-width="2.2" marker-end="url(#ah)"/><line x1="217" y1="83" x2="327" y2="83" stroke="#c62828" stroke-width="1"/><text x="272" y="78" font-size="10.5" fill="#c62828" font-family="Arial" text-anchor="middle">2.5 m</text><line x1="30" y1="307.6" x2="444" y2="307.6" stroke="#333"/><text x="237" y="321.6" font-size="12" font-family="Arial" text-anchor="middle" font-weight="bold">9.4 m</text><line x1="463.6" y1="50" x2="463.6" y2="288" stroke="#333"/><text x="479.6" y="169" font-size="12" font-family="Arial" text-anchor="middle" font-weight="bold" transform="rotate(90 479.6 169)">5.4 m</text><rect x="30" y="337.6" width="20" height="13" fill="#c8e6c9" stroke="#666"/><text x="55" y="348.6" font-size="10" font-family="Arial">Machine</text><rect x="112.19999999999999" y="337.6" width="20" height="13" fill="#ffcdd2" stroke="#666"/><text x="137.2" y="348.6" font-size="10" font-family="Arial">Raw material</text><rect x="222.39999999999998" y="337.6" width="20" height="13" fill="#ffe0b2" stroke="#666"/><text x="247.39999999999998" y="348.6" font-size="10" font-family="Arial">Load/unload</text><rect x="327.0" y="337.6" width="20" height="13" fill="#fff9c4" stroke="#666"/><text x="352.0" y="348.6" font-size="10" font-family="Arial">WIP</text><rect x="386.8" y="337.6" width="20" height="13" fill="#e0e0e0" stroke="#666"/><text x="411.8" y="348.6" font-size="10" font-family="Arial">Operator/aisle</text><rect x="508.2" y="337.6" width="20" height="13" fill="#bbdefb" stroke="#666"/><text x="533.2" y="348.6" font-size="10" font-family="Arial">Safety</text><rect x="584.8" y="337.6" width="20" height="13" fill="#d7ccc8" stroke="#666"/><text x="609.8" y="348.6" font-size="10" font-family="Arial">Scrap/waste</text><line x1="689.4" y1="344.6" x2="715.4" y2="344.6" stroke="black" stroke-width="2" marker-end="url(#ah)"/><text x="720.4" y="348.6" font-size="10" font-family="Arial">Flow</text></svg>