<svg xmlns="http://www.w3.org/2000/svg" width="370" height="398" viewBox="0 0 370 398"><defs><marker id="ah" markerWidth="9" markerHeight="9" refX="7" refY="3" orient="auto"><path d="M0,0 L8,3 L0,6 z" fill="black"/></marker><marker id="ahO" markerWidth="9" markerHeight="9" refX="7" refY="3" orient="auto"><path d="M0,0 L8,3 L0,6 z" fill="#e65100"/></marker></defs><rect width="370" height="398" fill="white"/><text x="30" y="22" font-size="14.5" font-family="Arial" font-weight="bold">Sandblasting booth area</text><text x="30" y="38" font-size="11" font-family="Arial" fill="#444">32.0 m2 (remainder of 80 m2 zone)   |   Not to scale - dimensions in metres</text><rect x="30" y="50" width="282" height="220" fill="none" stroke="#222" stroke-width="2.4"/><rect x="92" y="63" width="150" height="158" fill="#bbdefb" stroke="#666" stroke-width="1.2"/><text x="166" y="136" font-size="11.5" text-anchor="middle" dominant-baseline="middle" font-family="Arial">Enclosure</text><text x="166" y="149" font-size="11.5" text-anchor="middle" dominant-baseline="middle" font-family="Arial">3.4 × 3.6 m</text><rect x="30" y="76" width="53" height="70" fill="#fff9c4" stroke="#666" stroke-width="1.2"/><text x="56" y="105" font-size="10.5" text-anchor="middle" dominant-baseline="middle" font-family="Arial">IN racks</text><text x="56" y="118" font-size="10.5" text-anchor="middle" dominant-baseline="middle" font-family="Arial">1.2 × 1.6 m</text><rect x="105" y="76" width="123" height="132" fill="#c8e6c9" stroke="#666" stroke-width="1.2"/><text x="166" y="129" font-size="11.5" text-anchor="middle" dominant-baseline="middle" font-family="Arial">Blast booth</text><text x="166" y="142" font-size="11.5" text-anchor="middle" dominant-baseline="middle" font-family="Arial">+ media recovery</text><text x="166" y="155" font-size="11.5" text-anchor="middle" dominant-baseline="middle" font-family="Arial">2.8 × 3 m</text><rect x="250" y="76" width="53" height="62" fill="#c8e6c9" stroke="#666" stroke-width="1.2"/><text x="276" y="94" font-size="10.5" text-anchor="middle" dominant-baseline="middle" font-family="Arial">Dust</text><text x="276" y="107" font-size="10.5" text-anchor="middle" dominant-baseline="middle" font-family="Arial">collector</text><text x="276" y="120" font-size="10.5" text-anchor="middle" dominant-baseline="middle" font-family="Arial">1.2 × 1.4 m</text><rect x="250" y="156" width="53" height="44" fill="#d7ccc8" stroke="#666" stroke-width="1.2"/><text x="276" y="171" font-size="10.5" text-anchor="middle" dominant-baseline="middle" font-family="Arial">Sealed drums</text><text x="276" y="184" font-size="10.5" text-anchor="middle" dominant-baseline="middle" font-family="Arial">1.2 × 1 m</text><rect x="30" y="160" width="53" height="53" fill="#fff9c4" stroke="#666" stroke-width="1.2"/><text x="56" y="180" font-size="10.5" text-anchor="middle" dominant-baseline="middle" font-family="Arial">OUT racks</text><text x="56" y="193" font-size="10.5" text-anchor="middle" dominant-baseline="middle" font-family="Arial">1.2 × 1.2 m</text><rect x="30" y="235" width="282" height="26" fill="#e0e0e0" stroke="#666" stroke-width="1.2"/><text x="171" y="242" font-size="10.5" text-anchor="middle" dominant-baseline="middle" font-family="Arial">Aisle</text><text x="171" y="254" font-size="10.5" text-anchor="middle" dominant-baseline="middle" font-family="Arial">6.4 × 0.6 m = 3.8 m²</text><line x1="83" y1="107" x2="105" y2="116" stroke="black" stroke-width="2.2" marker-end="url(#ah)"/><line x1="105" y1="178" x2="83" y2="182" stroke="black" stroke-width="2.2" marker-end="url(#ah)"/><line x1="228" y1="107" x2="250" y2="107" stroke="black" stroke-width="2.2" marker-end="url(#ah)"/><line x1="30" y1="290.0" x2="312" y2="290.0" stroke="#333"/><text x="171" y="304.0" font-size="12" font-family="Arial" text-anchor="middle" font-weight="bold">6.4 m</text><line x1="331.6" y1="50" x2="331.6" y2="270" stroke="#333"/><text x="347.6" y="160" font-size="12" font-family="Arial" text-anchor="middle" font-weight="bold" transform="rotate(90 347.6 160)">5 m</text><rect x="30" y="320.0" width="20" height="13" fill="#c8e6c9" stroke="#666"/><text x="55" y="331.0" font-size="10" font-family="Arial">Machine</text><rect x="112.19999999999999" y="320.0" width="20" height="13" fill="#ffcdd2" stroke="#666"/><text x="137.2" y="331.0" font-size="10" font-family="Arial">Raw material</text><rect x="222.39999999999998" y="320.0" width="20" height="13" fill="#ffe0b2" stroke="#666"/><text x="247.39999999999998" y="331.0" font-size="10" font-family="Arial">Load/unload</text><rect x="327.0" y="320.0" width="20" height="13" fill="#fff9c4" stroke="#666"/><text x="352.0" y="331.0" font-size="10" font-family="Arial">WIP</text><rect x="386.8" y="320.0" width="20" height="13" fill="#e0e0e0" stroke="#666"/><text x="411.8" y="331.0" font-size="10" font-family="Arial">Operator/aisle</text><rect x="508.2" y="320.0" width="20" height="13" fill="#bbdefb" stroke="#666"/><text x="533.2" y="331.0" font-size="10" font-family="Arial">Safety</text><rect x="584.8" y="320.0" width="20" height="13" fill="#d7ccc8" stroke="#666"/><text x="609.8" y="331.0" font-size="10" font-family="Arial">Scrap/waste</text><line x1="689.4" y1="327.0" x2="715.4" y2="327.0" stroke="black" stroke-width="2" marker-end="url(#ah)"/><text x="720.4" y="331.0" font-size="10" font-family="Arial">Flow</text></svg>