<svg xmlns="http://www.w3.org/2000/svg" width="766" height="539" viewBox="0 0 766 539"><defs><marker id="ah" markerWidth="9" markerHeight="9" refX="7" refY="3" orient="auto"><path d="M0,0 L8,3 L0,6 z" fill="black"/></marker><marker id="ahO" markerWidth="9" markerHeight="9" refX="7" refY="3" orient="auto"><path d="M0,0 L8,3 L0,6 z" fill="#e65100"/></marker></defs><rect width="766" height="539" fill="white"/><text x="30" y="22" font-size="14.5" font-family="Arial" font-weight="bold">Enclosed powder-coating area (one of two lines)</text><text x="30" y="38" font-size="11" font-family="Arial" fill="#444">Enclosure 15.0 x 8.0 m = 120 m2 - matches allowance   |   Not to scale - dimensions in metres</text><rect x="30" y="50" width="678" height="361" fill="none" stroke="#222" stroke-width="2.4"/><rect x="56" y="314" width="106" height="66" fill="#ffe0b2" stroke="#666" stroke-width="1.2"/><text x="109" y="334" font-size="11.5" text-anchor="middle" dominant-baseline="middle" font-family="Arial">Hang / load</text><text x="109" y="347" font-size="11.5" text-anchor="middle" dominant-baseline="middle" font-family="Arial">WIP BEFORE</text><text x="109" y="360" font-size="11.5" text-anchor="middle" dominant-baseline="middle" font-family="Arial">2.4 × 1.5 m</text><rect x="202" y="305" width="158" height="84" fill="#c8e6c9" stroke="#666" stroke-width="1.2"/><text x="281" y="334" font-size="11.5" text-anchor="middle" dominant-baseline="middle" font-family="Arial">Spray booth</text><text x="281" y="347" font-size="11.5" text-anchor="middle" dominant-baseline="middle" font-family="Arial">+ recovery</text><text x="281" y="360" font-size="11.5" text-anchor="middle" dominant-baseline="middle" font-family="Arial">3.6 × 1.9 m</text><rect x="395" y="305" width="202" height="84" fill="#c8e6c9" stroke="#666" stroke-width="1.2"/><text x="496" y="340" font-size="11.5" text-anchor="middle" dominant-baseline="middle" font-family="Arial">Cure oven</text><text x="496" y="354" font-size="11.5" text-anchor="middle" dominant-baseline="middle" font-family="Arial">4.6 × 1.9 m</text><rect x="206" y="195" width="392" height="44" fill="#fff9c4" stroke="#666" stroke-width="1.2"/><text x="402" y="211" font-size="10.5" text-anchor="middle" dominant-baseline="middle" font-family="Arial">Cooling leg (conveyor return)</text><text x="402" y="224" font-size="10.5" text-anchor="middle" dominant-baseline="middle" font-family="Arial">8.9 × 1 m</text><rect x="56" y="90" width="106" height="66" fill="#ffe0b2" stroke="#666" stroke-width="1.2"/><text x="109" y="110" font-size="11.5" text-anchor="middle" dominant-baseline="middle" font-family="Arial">Unload</text><text x="109" y="123" font-size="11.5" text-anchor="middle" dominant-baseline="middle" font-family="Arial">WIP AFTER</text><text x="109" y="136" font-size="11.5" text-anchor="middle" dominant-baseline="middle" font-family="Arial">2.4 × 1.5 m</text><rect x="655" y="90" width="40" height="79" fill="#bbdefb" stroke="#666" stroke-width="1.2"/><text x="675" y="123" font-size="10.5" text-anchor="middle" dominant-baseline="middle" font-family="Arial">Airlock</text><text x="675" y="136" font-size="10.5" text-anchor="middle" dominant-baseline="middle" font-family="Arial">0.9 × 1.8 m</text><rect x="540" y="76" width="79" height="53" fill="#bbdefb" stroke="#666" stroke-width="1.2"/><text x="580" y="90" font-size="10.5" text-anchor="middle" dominant-baseline="middle" font-family="Arial">Extraction +</text><text x="580" y="103" font-size="10.5" text-anchor="middle" dominant-baseline="middle" font-family="Arial">make-up air</text><text x="580" y="116" font-size="10.5" text-anchor="middle" dominant-baseline="middle" font-family="Arial">1.8 × 1.2 m</text><rect x="56" y="195" width="106" height="44" fill="#e0e0e0" stroke="#666" stroke-width="1.2"/><text x="109" y="204" font-size="10.5" text-anchor="middle" dominant-baseline="middle" font-family="Arial">Operator</text><text x="109" y="217" font-size="10.5" text-anchor="middle" dominant-baseline="middle" font-family="Arial">load-unload</text><text x="109" y="230" font-size="10.5" text-anchor="middle" dominant-baseline="middle" font-family="Arial">2.4 × 1 m = 2.4 m²</text><line x1="8" y1="345" x2="56" y2="345" stroke="black" stroke-width="2.2" marker-end="url(#ah)"/><line x1="56" y1="120" x2="8" y2="120" stroke="black" stroke-width="2.2" marker-end="url(#ah)"/><line x1="395" y1="296" x2="598" y2="296" stroke="#c62828" stroke-width="1"/><text x="496" y="291" font-size="10.5" fill="#c62828" font-family="Arial" text-anchor="middle">oven 4.6 m</text><path d="M 109,345 L 202,345 L 395,345 L 598,345 L 598,217 L 206,217 L 109,217 L 109,120" fill="none" stroke="#e65100" stroke-width="3" stroke-dasharray="10,6" marker-end="url(#ahO)"/><line x1="30" y1="430.79999999999995" x2="708" y2="430.79999999999995" stroke="#333"/><text x="369" y="444.79999999999995" font-size="12" font-family="Arial" text-anchor="middle" font-weight="bold">15.4 m</text><line x1="727.6" y1="50" x2="727.6" y2="411" stroke="#333"/><text x="743.6" y="230" font-size="12" font-family="Arial" text-anchor="middle" font-weight="bold" transform="rotate(90 743.6 230)">8.2 m</text><rect x="30" y="460.79999999999995" width="20" height="13" fill="#c8e6c9" stroke="#666"/><text x="55" y="471.79999999999995" font-size="10" font-family="Arial">Machine</text><rect x="112.19999999999999" y="460.79999999999995" width="20" height="13" fill="#ffcdd2" stroke="#666"/><text x="137.2" y="471.79999999999995" font-size="10" font-family="Arial">Raw material</text><rect x="222.39999999999998" y="460.79999999999995" width="20" height="13" fill="#ffe0b2" stroke="#666"/><text x="247.39999999999998" y="471.79999999999995" font-size="10" font-family="Arial">Load/unload</text><rect x="327.0" y="460.79999999999995" width="20" height="13" fill="#fff9c4" stroke="#666"/><text x="352.0" y="471.79999999999995" font-size="10" font-family="Arial">WIP</text><rect x="386.8" y="460.79999999999995" width="20" height="13" fill="#e0e0e0" stroke="#666"/><text x="411.8" y="471.79999999999995" font-size="10" font-family="Arial">Operator/aisle</text><rect x="508.2" y="460.79999999999995" width="20" height="13" fill="#bbdefb" stroke="#666"/><text x="533.2" y="471.79999999999995" font-size="10" font-family="Arial">Safety</text><rect x="584.8" y="460.79999999999995" width="20" height="13" fill="#d7ccc8" stroke="#666"/><text x="609.8" y="471.79999999999995" font-size="10" font-family="Arial">Scrap/waste</text><line x1="689.4" y1="467.79999999999995" x2="715.4" y2="467.79999999999995" stroke="black" stroke-width="2" marker-end="url(#ah)"/><text x="720.4" y="471.79999999999995" font-size="10" font-family="Arial">Flow</text></svg>