<svg xmlns="http://www.w3.org/2000/svg" width="282" height="314" viewBox="0 0 282 314"><defs><marker id="ah" markerWidth="9" markerHeight="9" refX="7" refY="3" orient="auto"><path d="M0,0 L8,3 L0,6 z" fill="black"/></marker><marker id="ahO" markerWidth="9" markerHeight="9" refX="7" refY="3" orient="auto"><path d="M0,0 L8,3 L0,6 z" fill="#e65100"/></marker></defs><rect width="282" height="314" fill="white"/><text x="30" y="22" font-size="14.5" font-family="Arial" font-weight="bold">Final-assembly workstations</text><text x="30" y="38" font-size="11" font-family="Arial" fill="#444">13.6 m2 - tube + sheet streams converge here only   |   Not to scale - dimensions in metres</text><rect x="30" y="50" width="194" height="136" fill="none" stroke="#222" stroke-width="2.4"/><rect x="30" y="125" width="194" height="31" fill="#fff9c4" stroke="#666" stroke-width="1.2"/><text x="127" y="134" font-size="10.5" text-anchor="middle" dominant-baseline="middle" font-family="Arial">3-part staging: back / middle / head subassy</text><text x="127" y="147" font-size="10.5" text-anchor="middle" dominant-baseline="middle" font-family="Arial">4.4 × 0.7 m</text><rect x="61" y="68" width="48" height="44" fill="#c8e6c9" stroke="#666" stroke-width="1.2"/><text x="85" y="77" font-size="10.5" text-anchor="middle" dominant-baseline="middle" font-family="Arial">Assembly</text><text x="85" y="90" font-size="10.5" text-anchor="middle" dominant-baseline="middle" font-family="Arial">bench 1</text><text x="85" y="103" font-size="10.5" text-anchor="middle" dominant-baseline="middle" font-family="Arial">1.1 × 1 m</text><rect x="131" y="68" width="48" height="44" fill="#c8e6c9" stroke="#666" stroke-width="1.2"/><text x="155" y="77" font-size="10.5" text-anchor="middle" dominant-baseline="middle" font-family="Arial">Assembly</text><text x="155" y="90" font-size="10.5" text-anchor="middle" dominant-baseline="middle" font-family="Arial">bench 2</text><text x="155" y="103" font-size="10.5" text-anchor="middle" dominant-baseline="middle" font-family="Arial">1.1 × 1 m</text><rect x="193" y="68" width="31" height="44" fill="#fff9c4" stroke="#666" stroke-width="1.2"/><text x="208" y="83" font-size="10.5" text-anchor="middle" dominant-baseline="middle" font-family="Arial">Out</text><text x="208" y="96" font-size="10.5" text-anchor="middle" dominant-baseline="middle" font-family="Arial">0.7 × 1 m</text><rect x="30" y="162" width="194" height="20" fill="#e0e0e0" stroke="#666" stroke-width="1.2"/><text x="127" y="172" font-size="10.5" text-anchor="middle" dominant-baseline="middle" font-family="Arial">Aisle</text><line x1="85" y1="125" x2="85" y2="112" stroke="black" stroke-width="2.2" marker-end="url(#ah)"/><line x1="155" y1="125" x2="155" y2="112" stroke="black" stroke-width="2.2" marker-end="url(#ah)"/><line x1="180" y1="90" x2="193" y2="90" stroke="black" stroke-width="2.2" marker-end="url(#ah)"/><line x1="30" y1="206.4" x2="224" y2="206.4" stroke="#333"/><text x="127" y="220.4" font-size="12" font-family="Arial" text-anchor="middle" font-weight="bold">4.4 m</text><line x1="243.60000000000002" y1="50" x2="243.60000000000002" y2="186" stroke="#333"/><text x="259.6" y="118" font-size="12" font-family="Arial" text-anchor="middle" font-weight="bold" transform="rotate(90 259.6 118)">3.1 m</text><rect x="30" y="236.4" width="20" height="13" fill="#c8e6c9" stroke="#666"/><text x="55" y="247.4" font-size="10" font-family="Arial">Machine</text><rect x="112.19999999999999" y="236.4" width="20" height="13" fill="#ffcdd2" stroke="#666"/><text x="137.2" y="247.4" font-size="10" font-family="Arial">Raw material</text><rect x="222.39999999999998" y="236.4" width="20" height="13" fill="#ffe0b2" stroke="#666"/><text x="247.39999999999998" y="247.4" font-size="10" font-family="Arial">Load/unload</text><rect x="327.0" y="236.4" width="20" height="13" fill="#fff9c4" stroke="#666"/><text x="352.0" y="247.4" font-size="10" font-family="Arial">WIP</text><rect x="386.8" y="236.4" width="20" height="13" fill="#e0e0e0" stroke="#666"/><text x="411.8" y="247.4" font-size="10" font-family="Arial">Operator/aisle</text><rect x="508.2" y="236.4" width="20" height="13" fill="#bbdefb" stroke="#666"/><text x="533.2" y="247.4" font-size="10" font-family="Arial">Safety</text><rect x="584.8" y="236.4" width="20" height="13" fill="#d7ccc8" stroke="#666"/><text x="609.8" y="247.4" font-size="10" font-family="Arial">Scrap/waste</text><line x1="689.4" y1="243.4" x2="715.4" y2="243.4" stroke="black" stroke-width="2" marker-end="url(#ah)"/><text x="720.4" y="247.4" font-size="10" font-family="Arial">Flow</text></svg>