<svg xmlns="http://www.w3.org/2000/svg" width="378" height="310" viewBox="0 0 378 310"><defs><marker id="ah" markerWidth="9" markerHeight="9" refX="7" refY="3" orient="auto"><path d="M0,0 L8,3 L0,6 z" fill="black"/></marker><marker id="ahO" markerWidth="9" markerHeight="9" refX="7" refY="3" orient="auto"><path d="M0,0 L8,3 L0,6 z" fill="#e65100"/></marker></defs><rect width="378" height="310" fill="white"/><text x="30" y="22" font-size="14.5" font-family="Arial" font-weight="bold">Packaging and final visual check cell</text><text x="30" y="38" font-size="11" font-family="Arial" fill="#444">Cell 19.8 m2 (corrected 18 m2 incl. pallet build)   |   Not to scale - dimensions in metres</text><rect x="30" y="50" width="290" height="132" fill="none" stroke="#222" stroke-width="2.4"/><rect x="30" y="63" width="48" height="66" fill="#ffcdd2" stroke="#666" stroke-width="1.2"/><text x="54" y="83" font-size="10.5" text-anchor="middle" dominant-baseline="middle" font-family="Arial">Bag / box</text><text x="54" y="96" font-size="10.5" text-anchor="middle" dominant-baseline="middle" font-family="Arial">shelving</text><text x="54" y="109" font-size="10.5" text-anchor="middle" dominant-baseline="middle" font-family="Arial">1.1 × 1.5 m</text><rect x="92" y="70" width="53" height="44" fill="#c8e6c9" stroke="#666" stroke-width="1.2"/><text x="118" y="79" font-size="10.5" text-anchor="middle" dominant-baseline="middle" font-family="Arial">Pack bench 1</text><text x="118" y="92" font-size="10.5" text-anchor="middle" dominant-baseline="middle" font-family="Arial">visual check</text><text x="118" y="105" font-size="10.5" text-anchor="middle" dominant-baseline="middle" font-family="Arial">1.2 × 1 m</text><rect x="158" y="70" width="53" height="44" fill="#c8e6c9" stroke="#666" stroke-width="1.2"/><text x="184" y="79" font-size="10.5" text-anchor="middle" dominant-baseline="middle" font-family="Arial">Pack bench 2</text><text x="184" y="92" font-size="10.5" text-anchor="middle" dominant-baseline="middle" font-family="Arial">visual check</text><text x="184" y="105" font-size="10.5" text-anchor="middle" dominant-baseline="middle" font-family="Arial">1.2 × 1 m</text><rect x="224" y="63" width="37" height="35" fill="#bbdefb" stroke="#666" stroke-width="1.2"/><text x="242" y="74" font-size="10.5" text-anchor="middle" dominant-baseline="middle" font-family="Arial">Quarantine</text><text x="242" y="87" font-size="10.5" text-anchor="middle" dominant-baseline="middle" font-family="Arial">0.85 × 0.8 m</text><rect x="224" y="107" width="77" height="57" fill="#ffe0b2" stroke="#666" stroke-width="1.2"/><text x="262" y="129" font-size="10.5" text-anchor="middle" dominant-baseline="middle" font-family="Arial">Pallet build x2</text><text x="262" y="142" font-size="10.5" text-anchor="middle" dominant-baseline="middle" font-family="Arial">1.75 × 1.3 m</text><rect x="30" y="142" width="185" height="22" fill="#e0e0e0" stroke="#666" stroke-width="1.2"/><text x="122" y="153" font-size="10.5" text-anchor="middle" dominant-baseline="middle" font-family="Arial">Aisle</text><line x1="78" y1="92" x2="92" y2="92" stroke="black" stroke-width="2.2" marker-end="url(#ah)"/><line x1="210" y1="112" x2="224" y2="125" stroke="black" stroke-width="2.2" marker-end="url(#ah)"/><line x1="301" y1="136" x2="320" y2="136" stroke="black" stroke-width="2.2" marker-end="url(#ah)"/><line x1="30" y1="202.0" x2="320" y2="202.0" stroke="#333"/><text x="175" y="216.0" font-size="12" font-family="Arial" text-anchor="middle" font-weight="bold">6.6 m</text><line x1="340.4" y1="50" x2="340.4" y2="182" stroke="#333"/><text x="356.4" y="116" font-size="12" font-family="Arial" text-anchor="middle" font-weight="bold" transform="rotate(90 356.4 116)">3 m</text><rect x="30" y="232.0" width="20" height="13" fill="#c8e6c9" stroke="#666"/><text x="55" y="243.0" font-size="10" font-family="Arial">Machine</text><rect x="112.19999999999999" y="232.0" width="20" height="13" fill="#ffcdd2" stroke="#666"/><text x="137.2" y="243.0" font-size="10" font-family="Arial">Raw material</text><rect x="222.39999999999998" y="232.0" width="20" height="13" fill="#ffe0b2" stroke="#666"/><text x="247.39999999999998" y="243.0" font-size="10" font-family="Arial">Load/unload</text><rect x="327.0" y="232.0" width="20" height="13" fill="#fff9c4" stroke="#666"/><text x="352.0" y="243.0" font-size="10" font-family="Arial">WIP</text><rect x="386.8" y="232.0" width="20" height="13" fill="#e0e0e0" stroke="#666"/><text x="411.8" y="243.0" font-size="10" font-family="Arial">Operator/aisle</text><rect x="508.2" y="232.0" width="20" height="13" fill="#bbdefb" stroke="#666"/><text x="533.2" y="243.0" font-size="10" font-family="Arial">Safety</text><rect x="584.8" y="232.0" width="20" height="13" fill="#d7ccc8" stroke="#666"/><text x="609.8" y="243.0" font-size="10" font-family="Arial">Scrap/waste</text><line x1="689.4" y1="239.0" x2="715.4" y2="239.0" stroke="black" stroke-width="2" marker-end="url(#ah)"/><text x="720.4" y="243.0" font-size="10" font-family="Arial">Flow</text></svg>