<svg xmlns="http://www.w3.org/2000/svg" width="634" height="600" viewBox="0 0 634 600"><defs><marker id="ah" markerWidth="9" markerHeight="9" refX="7" refY="3" orient="auto"><path d="M0,0 L8,3 L0,6 z" fill="black"/></marker><marker id="ahO" markerWidth="9" markerHeight="9" refX="7" refY="3" orient="auto"><path d="M0,0 L8,3 L0,6 z" fill="#e65100"/></marker></defs><rect width="634" height="600" fill="white"/><text x="30" y="22" font-size="14.5" font-family="Arial" font-weight="bold">Finished-goods racking and dispatch interface</text><text x="30" y="38" font-size="11" font-family="Arial" fill="#444">91 pallets / 31 positions / 59.5 m2 racking; FIFO   |   Not to scale - dimensions in metres</text><rect x="30" y="50" width="546" height="422" fill="none" stroke="#222" stroke-width="2.4"/><rect x="74" y="72" width="414" height="53" fill="#ffcdd2" stroke="#666" stroke-width="1.2"/><text x="281" y="92" font-size="11.5" text-anchor="middle" dominant-baseline="middle" font-family="Arial">Selective racking row A - 3 levels (putaway &lt;-)</text><text x="281" y="105" font-size="11.5" text-anchor="middle" dominant-baseline="middle" font-family="Arial">9.4 × 1.2 m</text><rect x="74" y="296" width="414" height="53" fill="#ffcdd2" stroke="#666" stroke-width="1.2"/><text x="281" y="316" font-size="11.5" text-anchor="middle" dominant-baseline="middle" font-family="Arial">Selective racking row B (-&gt; FIFO pick end)</text><text x="281" y="329" font-size="11.5" text-anchor="middle" dominant-baseline="middle" font-family="Arial">9.4 × 1.2 m</text><rect x="74" y="134" width="414" height="154" fill="#e0e0e0" stroke="#666" stroke-width="1.2"/><text x="281" y="204" font-size="11.5" text-anchor="middle" dominant-baseline="middle" font-family="Arial">Forklift aisle</text><text x="281" y="217" font-size="11.5" text-anchor="middle" dominant-baseline="middle" font-family="Arial">9.4 × 3.5 m = 32.9 m²</text><rect x="30" y="376" width="106" height="70" fill="#bbdefb" stroke="#666" stroke-width="1.2"/><text x="83" y="398" font-size="11.5" text-anchor="middle" dominant-baseline="middle" font-family="Arial">Customer collection</text><text x="83" y="411" font-size="11.5" text-anchor="middle" dominant-baseline="middle" font-family="Arial">(visitor side)</text><text x="83" y="424" font-size="11.5" text-anchor="middle" dominant-baseline="middle" font-family="Arial">2.4 × 1.6 m</text><rect x="356" y="367" width="119" height="79" fill="#fff9c4" stroke="#666" stroke-width="1.2"/><text x="415" y="393" font-size="11.5" text-anchor="middle" dominant-baseline="middle" font-family="Arial">Outbound staging</text><text x="415" y="406" font-size="11.5" text-anchor="middle" dominant-baseline="middle" font-family="Arial">5 pallets/day</text><text x="415" y="419" font-size="11.5" text-anchor="middle" dominant-baseline="middle" font-family="Arial">2.7 × 1.8 m</text><rect x="496" y="384" width="70" height="70" fill="#ffe0b2" stroke="#666" stroke-width="1.2"/><text x="532" y="413" font-size="10.5" text-anchor="middle" dominant-baseline="middle" font-family="Arial">Dock</text><text x="532" y="426" font-size="10.5" text-anchor="middle" dominant-baseline="middle" font-family="Arial">1.6 × 1.6 m</text><line x1="8" y1="208" x2="74" y2="208" stroke="black" stroke-width="2.2" marker-end="url(#ah)"/><line x1="452" y1="349" x2="417" y2="367" stroke="black" stroke-width="2.2" marker-end="url(#ah)"/><line x1="474" y1="402" x2="496" y2="411" stroke="black" stroke-width="2.2" marker-end="url(#ah)"/><line x1="65" y1="134" x2="65" y2="288" stroke="#c62828" stroke-width="1"/><text x="71" y="211" font-size="10.5" fill="#c62828" font-family="Arial" text-anchor="middle">3.5 m</text><line x1="30" y1="492.4" x2="576" y2="492.4" stroke="#333"/><text x="303" y="506.4" font-size="12" font-family="Arial" text-anchor="middle" font-weight="bold">12.4 m</text><line x1="595.6" y1="50" x2="595.6" y2="472" stroke="#333"/><text x="611.6" y="261" font-size="12" font-family="Arial" text-anchor="middle" font-weight="bold" transform="rotate(90 611.6 261)">9.6 m</text><rect x="30" y="522.4" width="20" height="13" fill="#c8e6c9" stroke="#666"/><text x="55" y="533.4" font-size="10" font-family="Arial">Machine</text><rect x="112.19999999999999" y="522.4" width="20" height="13" fill="#ffcdd2" stroke="#666"/><text x="137.2" y="533.4" font-size="10" font-family="Arial">Raw material</text><rect x="222.39999999999998" y="522.4" width="20" height="13" fill="#ffe0b2" stroke="#666"/><text x="247.39999999999998" y="533.4" font-size="10" font-family="Arial">Load/unload</text><rect x="327.0" y="522.4" width="20" height="13" fill="#fff9c4" stroke="#666"/><text x="352.0" y="533.4" font-size="10" font-family="Arial">WIP</text><rect x="386.8" y="522.4" width="20" height="13" fill="#e0e0e0" stroke="#666"/><text x="411.8" y="533.4" font-size="10" font-family="Arial">Operator/aisle</text><rect x="508.2" y="522.4" width="20" height="13" fill="#bbdefb" stroke="#666"/><text x="533.2" y="533.4" font-size="10" font-family="Arial">Safety</text><rect x="584.8" y="522.4" width="20" height="13" fill="#d7ccc8" stroke="#666"/><text x="609.8" y="533.4" font-size="10" font-family="Arial">Scrap/waste</text><line x1="689.4" y1="529.4" x2="715.4" y2="529.4" stroke="black" stroke-width="2" marker-end="url(#ah)"/><text x="720.4" y="533.4" font-size="10" font-family="Arial">Flow</text></svg>