<svg xmlns="http://www.w3.org/2000/svg" width="722" height="512" viewBox="0 0 722 512"><defs><marker id="ah" markerWidth="9" markerHeight="9" refX="7" refY="3" orient="auto"><path d="M0,0 L8,3 L0,6 z" fill="black"/></marker><marker id="ahO" markerWidth="9" markerHeight="9" refX="7" refY="3" orient="auto"><path d="M0,0 L8,3 L0,6 z" fill="#e65100"/></marker></defs><rect width="722" height="512" fill="white"/><text x="30" y="22" font-size="14.5" font-family="Arial" font-weight="bold">Raw-material storage interface</text><text x="30" y="38" font-size="11" font-family="Arial" fill="#444">990 tubes + 240 sheets; aisle doubles as saw feed lane   |   Not to scale - dimensions in metres</text><rect x="30" y="50" width="634" height="334" fill="none" stroke="#222" stroke-width="2.4"/><rect x="48" y="63" width="264" height="44" fill="#ffcdd2" stroke="#666" stroke-width="1.2"/><text x="180" y="79" font-size="10.5" text-anchor="middle" dominant-baseline="middle" font-family="Arial">Cantilever racks 1-2 (6 m arms)</text><text x="180" y="92" font-size="10.5" text-anchor="middle" dominant-baseline="middle" font-family="Arial">6 × 1 m</text><rect x="369" y="63" width="264" height="44" fill="#ffcdd2" stroke="#666" stroke-width="1.2"/><text x="501" y="79" font-size="10.5" text-anchor="middle" dominant-baseline="middle" font-family="Arial">Cantilever racks 3-4 (6 m arms)</text><text x="501" y="92" font-size="10.5" text-anchor="middle" dominant-baseline="middle" font-family="Arial">6 × 1 m</text><rect x="48" y="116" width="585" height="154" fill="#e0e0e0" stroke="#666" stroke-width="1.2"/><text x="340" y="186" font-size="11.5" text-anchor="middle" dominant-baseline="middle" font-family="Arial">Putaway + saw-feed forklift aisle</text><text x="340" y="200" font-size="11.5" text-anchor="middle" dominant-baseline="middle" font-family="Arial">13.3 × 3.5 m = 46.6 m²</text><rect x="48" y="283" width="75" height="75" fill="#ffcdd2" stroke="#666" stroke-width="1.2"/><text x="85" y="308" font-size="10.5" text-anchor="middle" dominant-baseline="middle" font-family="Arial">Sheet</text><text x="85" y="321" font-size="10.5" text-anchor="middle" dominant-baseline="middle" font-family="Arial">stack A</text><text x="85" y="334" font-size="10.5" text-anchor="middle" dominant-baseline="middle" font-family="Arial">1.7 × 1.7 m</text><rect x="136" y="283" width="75" height="75" fill="#ffcdd2" stroke="#666" stroke-width="1.2"/><text x="173" y="308" font-size="10.5" text-anchor="middle" dominant-baseline="middle" font-family="Arial">Sheet</text><text x="173" y="321" font-size="10.5" text-anchor="middle" dominant-baseline="middle" font-family="Arial">stack B</text><text x="173" y="334" font-size="10.5" text-anchor="middle" dominant-baseline="middle" font-family="Arial">1.7 × 1.7 m</text><rect x="567" y="274" width="79" height="97" fill="#ffe0b2" stroke="#666" stroke-width="1.2"/><text x="606" y="310" font-size="10.5" text-anchor="middle" dominant-baseline="middle" font-family="Arial">Ground-level</text><text x="606" y="323" font-size="10.5" text-anchor="middle" dominant-baseline="middle" font-family="Arial">tube bay</text><text x="606" y="336" font-size="10.5" text-anchor="middle" dominant-baseline="middle" font-family="Arial">1.8 × 2.2 m</text><line x1="584" y1="274" x2="514" y2="112" stroke="black" stroke-width="2.2" marker-end="url(#ah)"/><line x1="48" y1="191" x2="8" y2="191" stroke="black" stroke-width="2.2" marker-end="url(#ah)"/><line x1="171" y1="283" x2="171" y2="270" stroke="black" stroke-width="2.2" marker-end="url(#ah)"/><line x1="39" y1="116" x2="39" y2="270" stroke="#c62828" stroke-width="1"/><text x="45" y="193" font-size="10.5" fill="#c62828" font-family="Arial" text-anchor="middle">3.5 m</text><line x1="30" y1="404.4" x2="664" y2="404.4" stroke="#333"/><text x="347" y="418.4" font-size="12" font-family="Arial" text-anchor="middle" font-weight="bold">14.4 m</text><line x1="683.6" y1="50" x2="683.6" y2="384" stroke="#333"/><text x="699.6" y="217" font-size="12" font-family="Arial" text-anchor="middle" font-weight="bold" transform="rotate(90 699.6 217)">7.6 m</text><rect x="30" y="434.4" width="20" height="13" fill="#c8e6c9" stroke="#666"/><text x="55" y="445.4" font-size="10" font-family="Arial">Machine</text><rect x="112.19999999999999" y="434.4" width="20" height="13" fill="#ffcdd2" stroke="#666"/><text x="137.2" y="445.4" font-size="10" font-family="Arial">Raw material</text><rect x="222.39999999999998" y="434.4" width="20" height="13" fill="#ffe0b2" stroke="#666"/><text x="247.39999999999998" y="445.4" font-size="10" font-family="Arial">Load/unload</text><rect x="327.0" y="434.4" width="20" height="13" fill="#fff9c4" stroke="#666"/><text x="352.0" y="445.4" font-size="10" font-family="Arial">WIP</text><rect x="386.8" y="434.4" width="20" height="13" fill="#e0e0e0" stroke="#666"/><text x="411.8" y="445.4" font-size="10" font-family="Arial">Operator/aisle</text><rect x="508.2" y="434.4" width="20" height="13" fill="#bbdefb" stroke="#666"/><text x="533.2" y="445.4" font-size="10" font-family="Arial">Safety</text><rect x="584.8" y="434.4" width="20" height="13" fill="#d7ccc8" stroke="#666"/><text x="609.8" y="445.4" font-size="10" font-family="Arial">Scrap/waste</text><line x1="689.4" y1="441.4" x2="715.4" y2="441.4" stroke="black" stroke-width="2" marker-end="url(#ah)"/><text x="720.4" y="445.4" font-size="10" font-family="Arial">Flow</text></svg>