<svg xmlns="http://www.w3.org/2000/svg" width="810" height="644" viewBox="0 0 810 644"><defs><marker id="ah" markerWidth="9" markerHeight="9" refX="7" refY="3" orient="auto"><path d="M0,0 L8,3 L0,6 z" fill="black"/></marker><marker id="ahO" markerWidth="9" markerHeight="9" refX="7" refY="3" orient="auto"><path d="M0,0 L8,3 L0,6 z" fill="#e65100"/></marker></defs><rect width="810" height="644" fill="white"/><text x="30" y="22" font-size="14.5" font-family="Arial" font-weight="bold">Receiving and dispatch dock interface (U-flow)</text><text x="30" y="38" font-size="11" font-family="Arial" fill="#444">174 m2 of 250 m2 allowance; time-shared dock   |   Not to scale - dimensions in metres</text><rect x="30" y="50" width="722" height="466" fill="none" stroke="#222" stroke-width="2.4"/><rect x="56" y="76" width="308" height="194" fill="#ffcdd2" stroke="#666" stroke-width="1.2"/><text x="210" y="167" font-size="11.5" text-anchor="middle" dominant-baseline="middle" font-family="Arial">FG store (context)</text><text x="210" y="180" font-size="11.5" text-anchor="middle" dominant-baseline="middle" font-family="Arial">7 × 4.4 m</text><rect x="426" y="76" width="290" height="194" fill="#e0e0e0" stroke="#666" stroke-width="1.2"/><text x="571" y="167" font-size="11.5" text-anchor="middle" dominant-baseline="middle" font-family="Arial">Forklift spine (U-flow return)</text><text x="571" y="180" font-size="11.5" text-anchor="middle" dominant-baseline="middle" font-family="Arial">6.6 × 4.4 m = 29.0 m²</text><rect x="56" y="305" width="202" height="101" fill="#bbdefb" stroke="#666" stroke-width="1.2"/><text x="158" y="349" font-size="11.5" text-anchor="middle" dominant-baseline="middle" font-family="Arial">Customer collection - pedestrian only</text><text x="158" y="362" font-size="11.5" text-anchor="middle" dominant-baseline="middle" font-family="Arial">4.6 × 2.3 m</text><rect x="417" y="296" width="132" height="110" fill="#fff9c4" stroke="#666" stroke-width="1.2"/><text x="483" y="345" font-size="11.5" text-anchor="middle" dominant-baseline="middle" font-family="Arial">Inbound staging</text><text x="483" y="358" font-size="11.5" text-anchor="middle" dominant-baseline="middle" font-family="Arial">3 × 2.5 m</text><rect x="567" y="296" width="150" height="110" fill="#fff9c4" stroke="#666" stroke-width="1.2"/><text x="642" y="345" font-size="11.5" text-anchor="middle" dominant-baseline="middle" font-family="Arial">Outbound staging</text><text x="642" y="358" font-size="11.5" text-anchor="middle" dominant-baseline="middle" font-family="Arial">3.4 × 2.5 m</text><rect x="584" y="437" width="97" height="57" fill="#ffe0b2" stroke="#666" stroke-width="1.2"/><text x="633" y="453" font-size="11.5" text-anchor="middle" dominant-baseline="middle" font-family="Arial">Dock + leveller</text><text x="633" y="466" font-size="11.5" text-anchor="middle" dominant-baseline="middle" font-family="Arial">+ seal</text><text x="633" y="479" font-size="11.5" text-anchor="middle" dominant-baseline="middle" font-family="Arial">2.2 × 1.3 m</text><rect x="426" y="437" width="114" height="57" fill="#ffe0b2" stroke="#666" stroke-width="1.2"/><text x="483" y="459" font-size="11.5" text-anchor="middle" dominant-baseline="middle" font-family="Arial">Ground-level bay</text><text x="483" y="472" font-size="11.5" text-anchor="middle" dominant-baseline="middle" font-family="Arial">2.6 × 1.3 m</text><rect x="56" y="437" width="97" height="57" fill="#d7ccc8" stroke="#666" stroke-width="1.2"/><text x="105" y="459" font-size="11.5" text-anchor="middle" dominant-baseline="middle" font-family="Arial">Skip exchange</text><text x="105" y="472" font-size="11.5" text-anchor="middle" dominant-baseline="middle" font-family="Arial">2.2 × 1.3 m</text><line x1="633" y1="437" x2="633" y2="406" stroke="black" stroke-width="2.2" marker-end="url(#ah)"/><line x1="483" y1="296" x2="483" y2="270" stroke="black" stroke-width="2.2" marker-end="url(#ah)"/><line x1="364" y1="173" x2="426" y2="173" stroke="black" stroke-width="2.2" marker-end="url(#ah)"/><line x1="483" y1="437" x2="483" y2="406" stroke="black" stroke-width="2.2" marker-end="url(#ah)"/><line x1="417" y1="288" x2="549" y2="288" stroke="#c62828" stroke-width="1"/><text x="483" y="283" font-size="10.5" fill="#c62828" font-family="Arial" text-anchor="middle">3.0 m</text><line x1="30" y1="536.4" x2="752" y2="536.4" stroke="#333"/><text x="391" y="550.4" font-size="12" font-family="Arial" text-anchor="middle" font-weight="bold">16.4 m</text><line x1="771.5999999999999" y1="50" x2="771.5999999999999" y2="516" stroke="#333"/><text x="787.5999999999999" y="283" font-size="12" font-family="Arial" text-anchor="middle" font-weight="bold" transform="rotate(90 787.5999999999999 283)">10.6 m</text><rect x="30" y="566.4" width="20" height="13" fill="#c8e6c9" stroke="#666"/><text x="55" y="577.4" font-size="10" font-family="Arial">Machine</text><rect x="112.19999999999999" y="566.4" width="20" height="13" fill="#ffcdd2" stroke="#666"/><text x="137.2" y="577.4" font-size="10" font-family="Arial">Raw material</text><rect x="222.39999999999998" y="566.4" width="20" height="13" fill="#ffe0b2" stroke="#666"/><text x="247.39999999999998" y="577.4" font-size="10" font-family="Arial">Load/unload</text><rect x="327.0" y="566.4" width="20" height="13" fill="#fff9c4" stroke="#666"/><text x="352.0" y="577.4" font-size="10" font-family="Arial">WIP</text><rect x="386.8" y="566.4" width="20" height="13" fill="#e0e0e0" stroke="#666"/><text x="411.8" y="577.4" font-size="10" font-family="Arial">Operator/aisle</text><rect x="508.2" y="566.4" width="20" height="13" fill="#bbdefb" stroke="#666"/><text x="533.2" y="577.4" font-size="10" font-family="Arial">Safety</text><rect x="584.8" y="566.4" width="20" height="13" fill="#d7ccc8" stroke="#666"/><text x="609.8" y="577.4" font-size="10" font-family="Arial">Scrap/waste</text><line x1="689.4" y1="573.4" x2="715.4" y2="573.4" stroke="black" stroke-width="2" marker-end="url(#ah)"/><text x="720.4" y="577.4" font-size="10" font-family="Arial">Flow</text></svg>