<svg xmlns="http://www.w3.org/2000/svg" width="902" height="772" viewBox="0 0 902 772"><rect width="902" height="772" fill="white"/><text x="30" y="22" font-size="15" font-family="Arial" font-weight="bold">Figure C.20: Material-handling / milk-run route diagram (hourly fixed-route line feeding)</text><text x="30" y="40" font-size="11" font-family="Arial" fill="#444">Indicative block plan within the ~1 940 m2 corrected building envelope | Not to scale - key dimensions annotated</text><rect x="30" y="50" width="832" height="592" fill="none" stroke="#222" stroke-width="2.4"/><rect x="30" y="50" width="128" height="160" fill="#ffcdd2" stroke="#666" stroke-width="1"/><text x="94" y="118" font-size="10" text-anchor="middle" dominant-baseline="middle" font-family="Arial">RM STORE</text><text x="94" y="130" font-size="10" text-anchor="middle" dominant-baseline="middle" font-family="Arial">tube racks +</text><text x="94" y="142" font-size="10" text-anchor="middle" dominant-baseline="middle" font-family="Arial">sheet stacks</text><rect x="30" y="226" width="128" height="64" fill="#ffe0b2" stroke="#666" stroke-width="1"/><text x="94" y="252" font-size="10" text-anchor="middle" dominant-baseline="middle" font-family="Arial">Ground bay</text><text x="94" y="264" font-size="10" text-anchor="middle" dominant-baseline="middle" font-family="Arial">+ skips</text><rect x="174" y="50" width="256" height="80" fill="#c8e6c9" stroke="#666" stroke-width="1"/><text x="302" y="84" font-size="10" text-anchor="middle" dominant-baseline="middle" font-family="Arial">TUBE LINE</text><text x="302" y="96" font-size="10" text-anchor="middle" dominant-baseline="middle" font-family="Arial">saws &gt; thread/narrow &gt; knurl bank</text><rect x="174" y="146" width="160" height="96" fill="#c8e6c9" stroke="#666" stroke-width="1"/><text x="254" y="188" font-size="10" text-anchor="middle" dominant-baseline="middle" font-family="Arial">PRESS CELL</text><text x="254" y="200" font-size="10" text-anchor="middle" dominant-baseline="middle" font-family="Arial">stamp x2, bend, form</text><rect x="350" y="146" width="192" height="96" fill="#c8e6c9" stroke="#666" stroke-width="1"/><text x="446" y="188" font-size="10" text-anchor="middle" dominant-baseline="middle" font-family="Arial">FINISHING</text><text x="446" y="200" font-size="10" text-anchor="middle" dominant-baseline="middle" font-family="Arial">sharpen 8 + serrate 4</text><rect x="446" y="50" width="128" height="80" fill="#c8e6c9" stroke="#666" stroke-width="1"/><text x="510" y="84" font-size="10" text-anchor="middle" dominant-baseline="middle" font-family="Arial">POLISH 4</text><text x="510" y="96" font-size="10" text-anchor="middle" dominant-baseline="middle" font-family="Arial">+ RIVET</text><rect x="590" y="50" width="144" height="96" fill="#c8e6c9" stroke="#666" stroke-width="1"/><text x="662" y="92" font-size="10" text-anchor="middle" dominant-baseline="middle" font-family="Arial">HEAT TREAT</text><text x="662" y="104" font-size="10" text-anchor="middle" dominant-baseline="middle" font-family="Arial">oven + day buffers</text><rect x="750" y="50" width="112" height="96" fill="#c8e6c9" stroke="#666" stroke-width="1"/><text x="806" y="98" font-size="10" text-anchor="middle" dominant-baseline="middle" font-family="Arial">SANDBLAST</text><rect x="590" y="162" width="272" height="144" fill="#bbdefb" stroke="#666" stroke-width="1"/><text x="726" y="228" font-size="10" text-anchor="middle" dominant-baseline="middle" font-family="Arial">POWDER COATING - fully enclosed</text><text x="726" y="240" font-size="10" text-anchor="middle" dominant-baseline="middle" font-family="Arial">120 m2 (15 x 8 m)</text><rect x="590" y="322" width="144" height="80" fill="#c8e6c9" stroke="#666" stroke-width="1"/><text x="662" y="356" font-size="10" text-anchor="middle" dominant-baseline="middle" font-family="Arial">ASSEMBLY</text><text x="662" y="368" font-size="10" text-anchor="middle" dominant-baseline="middle" font-family="Arial">2 benches</text><rect x="750" y="322" width="112" height="80" fill="#c8e6c9" stroke="#666" stroke-width="1"/><text x="806" y="356" font-size="10" text-anchor="middle" dominant-baseline="middle" font-family="Arial">PACKAGING</text><text x="806" y="368" font-size="10" text-anchor="middle" dominant-baseline="middle" font-family="Arial">2 benches</text><rect x="590" y="418" width="272" height="128" fill="#ffcdd2" stroke="#666" stroke-width="1"/><text x="726" y="476" font-size="10" text-anchor="middle" dominant-baseline="middle" font-family="Arial">FINISHED GOODS</text><text x="726" y="488" font-size="10" text-anchor="middle" dominant-baseline="middle" font-family="Arial">91 pallets, 3-level selective</text><rect x="734" y="562" width="128" height="64" fill="#ffe0b2" stroke="#666" stroke-width="1"/><text x="798" y="594" font-size="10" text-anchor="middle" dominant-baseline="middle" font-family="Arial">Dock + apron</text><rect x="30" y="418" width="128" height="128" fill="#bbdefb" stroke="#666" stroke-width="1"/><text x="94" y="470" font-size="10" text-anchor="middle" dominant-baseline="middle" font-family="Arial">OFFICES /</text><text x="94" y="482" font-size="10" text-anchor="middle" dominant-baseline="middle" font-family="Arial">AMENITIES</text><text x="94" y="494" font-size="10" text-anchor="middle" dominant-baseline="middle" font-family="Arial">(visitor side)</text><rect x="30" y="562" width="160" height="64" fill="#bbdefb" stroke="#666" stroke-width="1"/><text x="110" y="588" font-size="10" text-anchor="middle" dominant-baseline="middle" font-family="Arial">CUSTOMER</text><text x="110" y="600" font-size="10" text-anchor="middle" dominant-baseline="middle" font-family="Arial">collection (pedestrian)</text><rect x="174" y="258" width="688" height="48" fill="#e0e0e0" stroke="#666" stroke-width="1"/><text x="518" y="282" font-size="10" text-anchor="middle" dominant-baseline="middle" font-family="Arial">MILK-RUN SPINE - 2.0 m trolley aisle (forklift sections 3.5 m)</text><path d="M 94,250 L 94,282 L 222,282 L 222,114 L 350,114 L 414,114 L 414,202 L 446,202 L 446,282 L 510,282 L 510,90 L 574,90 L 654,151 L 654,282 L 622,309 L 654,338 L 766,338 L 766,407 L 718,426 L 350,282 L 94,282" fill="none" stroke="#000" stroke-width="2.4" stroke-dasharray="9,6"/><circle cx="94" cy="250.0" r="10" fill="white" stroke="#000" stroke-width="1.6"/><text x="94" y="253.5" font-size="10.5" font-family="Arial" text-anchor="middle" font-weight="bold">1</text><circle cx="222" cy="114.0" r="10" fill="white" stroke="#000" stroke-width="1.6"/><text x="222" y="117.5" font-size="10.5" font-family="Arial" text-anchor="middle" font-weight="bold">2</text><circle cx="350" cy="114.0" r="10" fill="white" stroke="#000" stroke-width="1.6"/><text x="350" y="117.5" font-size="10.5" font-family="Arial" text-anchor="middle" font-weight="bold">3</text><circle cx="414" cy="114.0" r="10" fill="white" stroke="#000" stroke-width="1.6"/><text x="414" y="117.5" font-size="10.5" font-family="Arial" text-anchor="middle" font-weight="bold">4</text><circle cx="254" cy="186.0" r="10" fill="white" stroke="#000" stroke-width="1.6"/><text x="254" y="189.5" font-size="10.5" font-family="Arial" text-anchor="middle" font-weight="bold">5</text><circle cx="446" cy="186.0" r="10" fill="white" stroke="#000" stroke-width="1.6"/><text x="446" y="189.5" font-size="10.5" font-family="Arial" text-anchor="middle" font-weight="bold">6</text><circle cx="510" cy="90.0" r="10" fill="white" stroke="#000" stroke-width="1.6"/><text x="510" y="93.5" font-size="10.5" font-family="Arial" text-anchor="middle" font-weight="bold">7</text><circle cx="654" cy="122.0" r="10" fill="white" stroke="#000" stroke-width="1.6"/><text x="654" y="125.5" font-size="10.5" font-family="Arial" text-anchor="middle" font-weight="bold">8</text><circle cx="654" cy="234.0" r="10" fill="white" stroke="#000" stroke-width="1.6"/><text x="654" y="237.5" font-size="10.5" font-family="Arial" text-anchor="middle" font-weight="bold">9</text><circle cx="654" cy="346.0" r="10" fill="white" stroke="#000" stroke-width="1.6"/><text x="654" y="349.5" font-size="10.5" font-family="Arial" text-anchor="middle" font-weight="bold">10</text><circle cx="766" cy="346.0" r="10" fill="white" stroke="#000" stroke-width="1.6"/><text x="766" y="349.5" font-size="10.5" font-family="Arial" text-anchor="middle" font-weight="bold">11</text><circle cx="718" cy="442.0" r="10" fill="white" stroke="#000" stroke-width="1.6"/><text x="718" y="445.5" font-size="10.5" font-family="Arial" text-anchor="middle" font-weight="bold">12</text><line x1="30" y1="662" x2="862" y2="662" stroke="#333"/><text x="446.0" y="676" font-size="12" font-family="Arial" text-anchor="middle" font-weight="bold">~52 m (indicative)</text><text x="870" y="346.0" font-size="12" font-family="Arial" writing-mode="tb" font-weight="bold">~37 m</text><rect x="30" y="690" width="20" height="13" fill="#c8e6c9" stroke="#666"/><text x="55" y="701" font-size="10" font-family="Arial">Production zone</text><rect x="155.0" y="690" width="20" height="13" fill="#ffcdd2" stroke="#666"/><text x="180.0" y="701" font-size="10" font-family="Arial">Storage</text><rect x="235.2" y="690" width="20" height="13" fill="#ffe0b2" stroke="#666"/><text x="260.2" y="701" font-size="10" font-family="Arial">Load/unload</text><rect x="337.79999999999995" y="690" width="20" height="13" fill="#e0e0e0" stroke="#666"/><text x="362.79999999999995" y="701" font-size="10" font-family="Arial">Milk-run spine</text><rect x="457.19999999999993" y="690" width="20" height="13" fill="#bbdefb" stroke="#666"/><text x="482.19999999999993" y="701" font-size="10" font-family="Arial">Enclosed / clean / office</text><rect x="638.1999999999999" y="690" width="20" height="13" fill="#d7ccc8" stroke="#666"/><text x="663.1999999999999" y="701" font-size="10" font-family="Arial">Waste</text><line x1="707.1999999999999" y1="697" x2="737.1999999999999" y2="697" stroke="#000" stroke-width="2.4" stroke-dasharray="9,6"/><text x="743.1999999999999" y="701" font-size="10" font-family="Arial">Milk-run loop (stops 1-12, hourly)</text><text x="30" y="722" font-size="11" font-family="Arial" font-style="italic" fill="#6a1b9a">Figure C.20: Milk-run route - the five material handlers run an hourly fixed loop delivering kanban bins to every</text><text x="30" y="736" font-size="11" font-family="Arial" font-style="italic" fill="#6a1b9a">station and removing outputs/scrap; operators at stations above 90% utilisation never leave their stations. Aisles: 2.0</text><text x="30" y="750" font-size="11" font-family="Arial" font-style="italic" fill="#6a1b9a">m trolley, 3.5 m forklift sections. (Author&#x27;s own.)</text></svg>